<?xml version="1.0" encoding="utf-8"?>
<!-- Generator: Adobe Illustrator 27.0.0, SVG Export Plug-In . SVG Version: 6.00 Build 0)  -->
<svg version="1.1" id="Layer_1" xmlns="http://www.w3.org/2000/svg" xmlns:xlink="http://www.w3.org/1999/xlink" x="0px" y="0px"
	 viewBox="0 0 612 792" style="enable-background:new 0 0 612 792;" xml:space="preserve">
<style type="text/css">
	.st0{fill:#C3B358;}
	.st1{fill:#151514;}
	.st2{fill:#BC644B;}
	.st3{fill:#F8F7F7;}
</style>
<g>
	<path class="st0" d="M439.45,386.04c1.39,0.55,2.85,0.27,4.26,0.19c4.4-0.22,8.79,0.01,13.18,0.08c6.31,0.1,12.61,0.3,18.9,0.82
		c7.19,0.6,14.38,1.29,21.42,2.93c0.23,0.05,0.47,0.03,0.71,0.05c0,0.16,0,0.32,0,0.48c-0.07-0.04-0.15-0.08-0.22-0.12
		c-0.52-0.28-1.1-0.19-1.65-0.18c-6.07,0.15-12.13,0.33-18.2,0.46c-9.66,0.21-19.31,0.64-28.92,1.76
		c-3.61,0.42-7.19,1.03-10.71,1.93c-0.68,0.17-0.89,0.49-0.8,1.18c0.1,0.75,0.57,0.78,1.12,0.7c0.74-0.11,1.48-0.27,2.21-0.41
		c2.18,0.42,4.37,0.08,6.55,0.12c4.87,0.09,9.73,0,14.6,0.35c4.34,0.31,8.67,0.62,12.99,1.15c2.49,0.31,4.98,0.7,7.46,1.07
		c0.25,0.04,0.58,0.03,0.66,0.39c-0.83,0.07-1.66,0.18-2.49,0.2c-7.38,0.22-14.75,0.63-22.11,1.31c-9.46,0.87-18.85,2.26-28.19,3.99
		c-1.7,0.32-2.57,1.19-3.08,2.67c-0.13,0.18-0.26,0.35-0.39,0.53c-0.55,0.29-1.31,0.37-1.28,1.26c-4.42,5.25-9.76,9.27-16.08,11.94
		c-1.16,0.49-1.42,1.23-1.25,2.32c-0.72,0.46-0.52,1.28-0.74,1.93c-1.92,5.63-4.9,10.71-8.11,15.67c-1.3,1.21-2.28,2.67-3.28,4.12
		c-1.76,2.14-3.59,4.22-5.51,6.22c-0.27,0.28-0.78,0.57-0.18,1.03c0.09,2.03,0.24,4.06,0.26,6.09c0.08,5.9-1.21,11.52-3.38,17
		c-1.41,3.57-3.2,6.89-5.31,10.07c-0.55,0.82-0.9,1.78-1.37,2.65c-0.19,0.35,0.01,0.58,0.11,0.88c1.91,5.96,2.34,12,1.19,18.19
		c-1.25,6.71-3.92,12.8-7.57,18.51c-0.77,1.2-1.57,2.39-2.35,3.58c-1.24,1.24-2.26,2.67-3.29,4.08
		c-5.01,5.83-10.69,10.89-17.29,14.86c-5.57,3.36-11.47,5.85-18.09,6.08c-3,0.11-5.98-0.23-8.96-0.65
		c-8.36-1.17-16.15-3.82-23.08-8.76c-0.52-0.37-1-0.84-1.88-1.06c1.02,2.32,1.95,4.45,3.02,6.9c-2.61-1.49-4.87-2.83-7.17-4.09
		c-6.65-3.64-13.08-7.57-18.31-13.18c-0.61-0.65-1.01-0.33-1.5,0.06c-3.45,2.69-7.36,4.48-11.52,5.73
		c-7.7,2.31-15.63,2.77-23.59,2.94c-1.39,0.03-1.39,0.01-0.97-1.38c1.01-3.37,2.14-6.71,2.26-10.27c0.18-5.21-1.25-10.11-3.06-14.92
		c-1.03-2.74-2.3-5.36-3.8-7.87c-0.15-0.25-0.31-1-0.8-0.36c-0.49,0.64-1.14,1.27-0.97,2.22c-0.26,0.14-0.51,0.27-0.77,0.41
		c-1.64,2.3-3.6,4.31-5.73,6.12c-6.02,5.09-12.6,9.43-18.95,14.08c-0.12,0.09-0.27,0.17-0.48-0.01c0.05-0.27,0.09-0.58,0.16-0.88
		c0.79-3.38,1.57-6.77,2.4-10.14c0.75-3.03,0.89-6.07,0.45-9.15c-0.75-5.26-2.85-10.04-5.22-14.72c-2.69-5.31-5.84-10.37-8.71-15.59
		c-2.18-3.96-4.18-8-5.59-12.3c-0.27-0.83-0.59-1.02-1.32-0.48c-0.64,0.47-1.35,0.85-2.03,1.27c-6.69,4.02-13.74,7.34-20.76,10.71
		c-3.27,1.57-6.47,3.3-9.83,4.67c-0.1-0.5,0.07-0.95,0.37-1.33c2.54-3.24,4.59-6.81,6.76-10.29c0.37-0.6,0.37-1.37,0.82-1.95
		c0.3,0.12,0.44-0.06,0.55-0.29c0.6-1.21,1.29-2.37,1.63-3.7c0.41-1.17,0.88-2.32,1.22-3.51c1.79-6.35,1.14-12.66-0.27-18.97
		c-0.27-1.21-0.75-2.23-1.59-3.14c-1.48-1.62-2.92-3.28-4.35-4.95c-2.98-3.49-6.11-6.85-8.2-11.03c-2.49-4.98-4.6-10.11-6.33-15.4
		c-4.55-13.94-6.92-28.15-5.18-42.85c0.61-5.17,1.94-10.17,3.96-14.98c0.05-0.26,0.1-0.51,0.14-0.77c0.39-0.25,0.51-0.7,0.74-1.07
		c0.57-0.9,0.45-1.41-0.7-1.74c-2.42-0.71-4.65-1.89-6.81-3.19c-6.87-4.13-12.46-9.65-17.33-15.94c-2.71-3.51-5.34-7.08-6.22-11.58
		c0.27-1.52,1.16-2.78,1.76-4.16c1.54-3.53,3.35-6.93,5.25-10.28c2.67-4.69,5.6-9.2,9.02-13.41c2.85-3.5,5.85-6.82,9.23-9.79
		c5.62-4.94,11.85-8.91,18.84-11.67c4.79-1.89,9.75-3.19,14.77-4.2c2.61-0.52,5.26-0.89,7.93-1.16c2.46-0.24,4.9-0.65,7.35-1
		c0.6-0.09,1.04-0.4,1.48-0.88c5.65-6.23,11.79-11.92,19.11-16.15c4.99-2.88,10.33-4.9,16.05-5.97c6.52-1.23,13.02-0.94,19.57-0.51
		c6.85,0.45,13.69,1.34,20.57,1.02c4.66-0.22,9.3-0.67,13.88-1.7c3.14-0.71,6.35-1.17,9.58-1.38c0.3-0.02,0.65,0.07,0.88-0.25
		c3.84,0,7.68,0,11.52,0c0.32,0.5,0.88,0.35,1.31,0.38c6.3,0.39,12.38,1.9,18.41,3.61c3.08,0.87,6.09,2.05,9.07,3.26
		c3.87,1.57,7.62,3.36,11.23,5.43c6.05,3.47,11.87,7.3,17.05,12c2.32,2.11,4.3,4.58,6.71,6.61c2.29,1.92,4.71,3.64,7.26,5.2
		c4.3,2.63,8.86,4.88,12.67,8.27c3.9,3.46,7.02,7.49,9.51,12.08c2.76,5.07,4.76,10.43,6.4,15.92c1.59,5.34,2.6,10.81,1.71,16.41
		c-0.96,6.01,2.07,10.05,6.35,13.54c4.09,3.33,7.78,7.06,11.02,11.2c3.49,4.47,6.33,9.31,7.87,14.83c0.11,0.38,0.13,0.79,0.17,1.18
		c0.13,1.69,0.13,1.77,1.86,1.65c8.62-0.57,17.25-0.6,25.89-0.45c1.16,0.02,2.36-0.12,3.44,0.5c-3.5,0.92-7.01,1.83-10.51,2.76
		c-3.39,0.91-6.78,1.84-10.03,3.19c-1.75,0.72-3.25,1.84-4.76,2.97c1.11,0.09,2.11-0.12,3.11-0.4c3.91-0.24,7.72-1.15,11.58-1.7
		c4.06-0.58,8.12-1.17,12.18-1.68c5.7-0.73,11.41-1.27,17.14-1.55c4.18-0.21,8.36-0.56,12.53,0.04c-7.88,1.9-15.77,3.79-23.64,5.72
		c-11.25,2.76-22.47,5.64-33.44,9.42c-0.51,0.18-1.13,0.19-1.61,0.83C435.26,386.41,437.38,386.55,439.45,386.04z M214.49,519.05
		c0.22,0.09,0.38-0.02,0.55-0.13c3.93-2.76,7.85-5.52,11.13-9.07c2.81-3.04,4.93-6.48,5.93-10.54c0.15-0.59,0.09-1.25,0.7-2.06
		c8.97,10.92,14.15,22.95,13.33,37.25c1.8-1.97,3.52-4.15,5.16-6.38c4.19-5.7,7.54-11.78,8.25-19.14c0.18,0.24,0.28,0.32,0.32,0.42
		c2.73,7.74,3.86,15.52,0.4,23.36c-0.38,0.86-0.34,1.18,0.73,1.16c5.89-0.12,10.67-2.54,14.4-7c0.8-0.96,1.1-0.81,1.78-0.02
		c3.01,3.49,6.26,6.74,10.02,9.44c1.54,1.11,3.12,2.15,5.05,3.16c-2.51-6.74-2.99-13.45-2.38-20.28c0.24,0.44,0.37,0.9,0.49,1.35
		c2.66,10.14,8.38,17.93,17.64,23c6.05,3.32,12.62,4.88,19.42,5.72c5.85,0.72,11.42-0.03,16.69-2.64
		c14.59-7.26,25.18-18.35,31.21-33.51c3.37-8.48,3.71-17.13-0.47-25.59c-0.18-0.36-0.2-0.62,0.11-0.95
		c4.37-4.69,7.18-10.26,9.12-16.29c1.67-5.2,2.28-10.53,1.63-15.97c-0.04-0.33,0.07-0.83-0.31-0.96c-0.4-0.14-0.57,0.34-0.8,0.59
		c-3.52,3.66-6.98,7.38-11.01,10.5c-0.56,0.43-1.18,1.34-1.71,1.11c-0.72-0.3-0.59-1.38-0.67-2.15c-0.81-7.6-0.54-15.17,0.71-22.7
		c0.59-3.56,1.43-7.06,3.53-10.11c0.72-1.04,1.61-1.88,2.82-2.32c1.07-0.39,1.21-0.28,1.02,0.82c-1.45,8.52-1.43,17.11-1.41,25.71
		c0,0.12,0.01,0.24,0.02,0.36c0.01,0.52,0.25,0.65,0.68,0.36c0.39-0.27,0.78-0.56,1.16-0.86c7.08-5.67,13.12-12.28,17.91-20
		c3.08-4.96,5.52-10.19,6.48-16.01c0.11-0.66,0.51-0.89,1.09-1.08c8.01-2.74,14.46-7.43,18.62-14.96c0.29-0.52,0.66-0.71,1.23-0.77
		c3.81-0.43,7.61-0.95,11.43-1.35c10.82-1.13,21.65-2,32.54-1.93c0.42,0,0.85,0,1.27,0c-1.08-0.31-2.15-0.45-3.22-0.5
		c-5.95-0.29-11.9-0.58-17.86-0.35c-4.28,0.16-8.55,0.3-12.81,0.72c-3.26,0.32-6.52,0.67-9.78,1.01c-1.29,0.13-1.31,0.12-0.85-1.13
		c0.49-1.31,0.93-2.64,1.17-4.02c0.15-0.87,0.6-1.18,1.43-1.27c5.44-0.62,10.87-1.34,16.31-1.89c10.66-1.08,21.34-1.89,32.06-2.01
		c0.44-0.01,0.93,0.07,1.48-0.35c-3.58-0.4-7-0.53-10.42-0.68c-7.84-0.35-15.67-0.03-23.49,0.44c-5.19,0.31-10.36,0.76-15.54,1.17
		c-0.76,0.06-1-0.15-0.92-0.9c0.11-1.15,0.2-2.31,0.2-3.47c0-0.73,0.26-1.04,0.96-1.25c8.77-2.65,17.64-4.86,26.55-6.95
		c5.32-1.24,10.65-2.46,16.28-3.75c-0.72,0-1.12-0.04-1.51,0.01c-6.71,0.73-13.41,1.61-20.07,2.72c-7.22,1.21-14.37,2.72-21.41,4.74
		c-0.69,0.2-0.97,0.04-0.99-0.67c-0.07-2-0.41-3.97-0.8-5.93c-0.14-0.7,0-0.97,0.69-1.21c4.37-1.47,8.82-2.57,13.36-3.32
		c3-0.5,6.01-0.9,9.32-1.4c-1.3-0.36-2.33-0.29-3.35-0.26c-6.58,0.15-13.05,1.14-19.47,2.53c-0.97,0.21-1.39,0.04-1.66-1
		c-2.06-7.83-5.8-14.75-11.17-20.83c-3.03-3.43-6.62-6.26-9.93-9.39c-4.19-3.96-6.49-8.56-5.71-14.54c0.43-3.28,0.26-6.62-0.24-9.92
		c-0.78-5.15-2.73-9.91-4.63-14.71c-4.11-10.43-10.76-18.56-20.88-23.76c-4.27-2.19-8.15-5.05-11.81-8.18
		c-2.73-2.34-5.12-5.06-7.96-7.28c-13.46-10.52-28.51-17.45-45.47-20.01c-9.09-1.37-18.17-1.23-27.19,0.67
		c-8.16,1.72-16.4,2.01-24.69,1.46c-6.94-0.46-13.85-1.28-20.83-1.17c-7.58,0.12-14.72,1.84-21.37,5.5
		c-7.6,4.18-13.89,9.95-19.58,16.39c-1.14,1.29-2.35,1.79-3.97,1.98c-5.83,0.69-11.66,1.41-17.42,2.59
		c-13.9,2.86-25.59,9.53-34.98,20.19c-7.01,7.96-12.26,17.03-16.77,26.58c-0.79,1.68-0.67,2.95,0.2,4.44
		c2.19,3.75,4.8,7.17,7.71,10.37c3.95,4.34,8.32,8.17,13.48,11.04c3.72,2.07,7.67,3.34,11.94,3.48c0,0.16,0.03,0.25,0,0.31
		c-0.09,0.18-0.19,0.35-0.3,0.51c-5.76,8.16-8,17.43-8.36,27.22c-0.47,12.92,2.09,25.35,6.34,37.48c1.84,5.25,4,10.36,6.91,15.13
		c0.46,0.76,1,1.47,1.51,2.21c0.12-0.04,0.23-0.07,0.35-0.11c-1.42-6.37-1.75-12.72,0.23-19.02c0.17,0.21,0.26,0.42,0.31,0.65
		c1.23,5.14,3.05,10.09,5,14.99c2.39,6.01,5.1,11.91,6.8,18.17c1.28,4.7,1.93,9.45,1.39,14.34c-0.57,5.14-2.36,9.84-4.87,14.31
		c-0.24,0.42-0.6,0.81-0.64,1.57c8.37-4.42,16.99-8.05,24.08-14.58c0.05,1.67,0.14,3.24,0.48,4.79c1.23,5.62,3.85,10.65,6.59,15.63
		c3.7,6.72,7.81,13.22,10.82,20.3c2.14,5.04,3.65,10.24,3.51,15.79c-0.04,1.59-0.3,3.17-0.45,4.76c-0.02,0.05-0.05,0.1-0.07,0.15
		C214.39,519.11,214.44,519.08,214.49,519.05z"/>
	<path class="st1" d="M232.9,509.52c-0.17-0.95,0.48-1.58,0.97-2.22c0.49-0.64,0.65,0.11,0.8,0.36c1.51,2.51,2.78,5.13,3.8,7.87
		c1.8,4.81,3.23,9.71,3.06,14.92c-0.12,3.56-1.24,6.9-2.26,10.27c-0.42,1.39-0.42,1.41,0.97,1.38c7.96-0.17,15.9-0.64,23.59-2.94
		c4.16-1.25,8.07-3.03,11.52-5.73c0.5-0.39,0.9-0.72,1.5-0.06c5.23,5.6,11.66,9.54,18.31,13.18c2.3,1.26,4.56,2.6,7.17,4.09
		c-1.07-2.45-2-4.58-3.02-6.9c0.88,0.22,1.36,0.69,1.88,1.06c6.93,4.94,14.72,7.59,23.08,8.76c2.97,0.42,5.96,0.76,8.96,0.65
		c6.62-0.24,12.52-2.73,18.09-6.08c6.6-3.97,12.28-9.03,17.28-14.86c0.1,0.11,0.2,0.22,0.31,0.32c-7.51,9.29-16.39,16.77-27.7,21.07
		c-5.39,2.05-10.93,2.1-16.55,1.46c-5.87-0.67-11.55-2.1-16.96-4.49c-1.6-0.71-3.3-0.55-4.96-0.72c-0.81-0.08-0.87,0.81-1.22,1.3
		c-0.29,0.4-0.46,0.82-1.1,0.43c-5.35-3.19-10.93-6.01-16.12-9.47c-3.2-2.14-6.06-4.69-8.8-7.39c-0.39-0.38-0.65-0.73-1.27-0.23
		c-4.12,3.33-8.91,5.25-14,6.53c-7.18,1.8-14.52,2.19-21.88,2.38c-0.82,0.02-0.84-0.28-0.66-0.89c0.56-1.91,1.15-3.82,1.67-5.74
		c1.38-5.15,0.77-10.22-0.67-15.24c-1.23-4.28-2.95-8.35-5.14-12.23C233.39,510.05,233.23,509.72,232.9,509.52z"/>
	<path class="st1" d="M156.5,483.51c3.36-1.37,6.56-3.1,9.83-4.67c7.02-3.37,14.07-6.69,20.76-10.71c0.68-0.41,1.39-0.79,2.03-1.27
		c0.74-0.54,1.05-0.35,1.32,0.48c1.41,4.31,3.42,8.34,5.59,12.3c2.87,5.22,6.02,10.27,8.71,15.59c2.37,4.68,4.47,9.46,5.22,14.72
		c0.44,3.08,0.3,6.12-0.45,9.15c-0.83,3.37-1.61,6.76-2.4,10.14c-0.07,0.3-0.11,0.62-0.16,0.88c0.21,0.18,0.35,0.1,0.48,0.01
		c6.35-4.64,12.93-8.99,18.95-14.08c2.14-1.81,4.1-3.83,5.73-6.12c-1.07,2.46-2.91,4.35-4.72,6.25c-2.71,2.85-5.9,5.13-9.06,7.44
		c-3.77,2.76-7.56,5.51-11.35,8.24c-0.44,0.32-0.83,0.75-1.55,0.91c0.72-3.02,1.36-5.98,2.12-8.9c1.13-4.29,1.76-8.6,0.83-13.02
		c-0.78-3.69-2.09-7.19-3.69-10.6c-3.09-6.59-7.05-12.71-10.5-19.1c-2.01-3.73-3.86-7.53-5.16-11.57c-0.22-0.68-0.38-0.92-1.12-0.46
		c-9.01,5.6-18.67,9.95-28.18,14.59c-1.63,0.8-3.27,1.57-5.21,2.5C155.2,485.02,155.52,484.03,156.5,483.51z"/>
	<path class="st1" d="M145.89,351.12c-2.01,4.81-3.34,9.81-3.96,14.98c-1.74,14.7,0.63,28.91,5.18,42.85
		c1.73,5.29,3.84,10.41,6.33,15.4c2.09,4.18,5.22,7.54,8.2,11.03c1.43,1.67,2.87,3.33,4.35,4.95c0.84,0.91,1.32,1.93,1.59,3.14
		c1.41,6.31,2.06,12.62,0.27,18.97c-0.34,1.19-0.81,2.34-1.22,3.5c-0.15-0.04-0.3-0.08-0.46-0.12c2.21-7.08,1.47-14.13-0.23-21.17
		c-0.13-0.54-0.42-0.94-0.76-1.33c-2.47-2.83-4.88-5.71-7.42-8.48c-3.59-3.92-6.08-8.49-8.15-13.32c-3.66-8.54-6.4-17.36-8.03-26.52
		c-1.74-9.74-2.28-19.52-0.62-29.33c0.72-4.26,1.9-8.4,3.63-12.37C144.93,352.51,145.31,351.76,145.89,351.12z"/>
	<path class="st1" d="M440.75,395.93c-0.74,0.14-1.47,0.3-2.21,0.41c-0.54,0.08-1.02,0.05-1.12-0.7c-0.09-0.69,0.12-1.01,0.8-1.18
		c3.53-0.9,7.1-1.51,10.71-1.93c9.61-1.13,19.25-1.56,28.92-1.76c6.07-0.13,12.13-0.31,18.2-0.46c0.55-0.01,1.12-0.11,1.65,0.18
		c-0.57,1.44-1.4,2.15-3.19,2.17c-8.59,0.1-17.18,0.34-25.76,0.65c-8.86,0.32-17.71,0.85-26.47,2.34
		C441.76,395.72,441.26,395.83,440.75,395.93z"/>
	<path class="st1" d="M427.14,407.19c0.51-1.49,1.38-2.36,3.08-2.67c9.34-1.73,18.73-3.12,28.19-3.99
		c7.35-0.68,14.72-1.09,22.11-1.31c0.83-0.02,1.66-0.13,2.49-0.2c0.35,0.18,0.95-0.27,1.1,0.35c0.12,0.51-1.2,2.01-1.71,2.03
		c-2.08,0.08-4.15,0.16-6.23,0.24c-13.07,0.51-26.09,1.59-39,3.77C433.82,405.98,430.48,406.59,427.14,407.19z"/>
	<path class="st1" d="M115.72,316.82c0.88,4.5,3.5,8.08,6.22,11.58c4.87,6.29,10.46,11.82,17.33,15.94c2.16,1.3,4.39,2.48,6.81,3.19
		c1.15,0.34,1.26,0.84,0.7,1.74c-0.23,0.37-0.35,0.81-0.74,1.07c-8.87-2.87-15.75-8.57-21.88-15.34c-3.06-3.38-5.83-6.98-8.06-10.97
		c-0.64-1.15-1.07-2.39-1.51-3.63C114.05,318.86,114.75,317.83,115.72,316.82z"/>
	<path class="st1" d="M408.14,423.23c-0.17-1.09,0.09-1.83,1.25-2.32c6.32-2.67,11.66-6.69,16.08-11.94
		c0.07,0.13,0.14,0.26,0.21,0.4C421.07,415.56,415.2,420.15,408.14,423.23z"/>
	<path class="st1" d="M390.32,452.2c-0.6-0.46-0.09-0.75,0.18-1.03c1.92-2,3.75-4.07,5.51-6.22c0.08,0.11,0.16,0.21,0.25,0.32
		C394.39,447.69,392.54,450.1,390.32,452.2z"/>
	<path class="st2" d="M368.92,533.59c-0.1-0.11-0.2-0.22-0.31-0.32c1.03-1.41,2.05-2.84,3.29-4.08
		C371.27,530.9,370.1,532.25,368.92,533.59z"/>
	<path class="st2" d="M396.26,445.28c-0.08-0.1-0.17-0.21-0.25-0.32c1-1.46,1.98-2.92,3.28-4.13
		C398.55,442.5,397.37,443.86,396.26,445.28z"/>
	<path class="st2" d="M166.17,465.82c0.15,0.04,0.3,0.08,0.46,0.12c-0.34,1.33-1.02,2.49-1.63,3.7c-0.12,0.23-0.26,0.41-0.55,0.29
		C165.03,468.57,165.6,467.2,166.17,465.82z"/>
	<path class="st2" d="M425.67,409.37c-0.07-0.13-0.14-0.26-0.21-0.4c-0.03-0.89,0.73-0.97,1.28-1.26
		C426.45,408.31,426.26,408.97,425.67,409.37z"/>
	<path class="st1" d="M439.45,386.04c-2.07,0.52-4.19,0.37-6.46,0.48c0.47-0.64,1.1-0.65,1.61-0.83
		c10.97-3.78,22.19-6.66,33.44-9.42c7.87-1.93,15.76-3.81,23.64-5.72c0.33,0.82-0.52,2.13-1.6,2.39c-4.84,1.17-9.68,2.32-14.52,3.49
		c-12,2.9-24,5.81-35.81,9.43C439.65,385.89,439.56,385.97,439.45,386.04z"/>
	<path class="st1" d="M438.25,375.45c-1,0.28-2,0.49-3.11,0.4c1.51-1.12,3.01-2.24,4.76-2.97c3.25-1.35,6.64-2.28,10.03-3.19
		c3.5-0.94,7.01-1.84,10.51-2.76c0.31-0.05,0.7-0.27,0.91-0.02c0.27,0.33-0.11,0.64-0.25,0.95c-0.34,0.77-0.86,1.21-1.75,1.42
		c-5.46,1.31-10.93,2.61-16.28,4.31C441.44,374.11,439.71,374.47,438.25,375.45z"/>
	<path class="st1" d="M214.41,518.98c0.16-1.59,0.41-3.17,0.45-4.76c0.14-5.55-1.37-10.75-3.51-15.79
		c-3.01-7.08-7.12-13.59-10.82-20.3c-2.74-4.98-5.36-10.01-6.59-15.63c-0.34-1.55-0.43-3.12-0.48-4.79
		c-7.09,6.53-15.7,10.16-24.08,14.58c0.04-0.76,0.41-1.15,0.64-1.57c2.52-4.47,4.3-9.17,4.87-14.31c0.54-4.89-0.11-9.64-1.39-14.34
		c-1.71-6.27-4.42-12.16-6.8-18.17c-1.95-4.9-3.77-9.85-5-14.99c-0.05-0.22-0.13-0.44-0.31-0.65c-1.98,6.3-1.65,12.64-0.23,19.02
		c-0.12,0.04-0.23,0.07-0.35,0.11c-0.5-0.74-1.04-1.45-1.51-2.21c-2.91-4.76-5.07-9.88-6.91-15.13
		c-4.26-12.13-6.82-24.57-6.34-37.48c0.36-9.79,2.6-19.06,8.36-27.22c0.11-0.16,0.21-0.34,0.3-0.51c0.03-0.06,0-0.15,0-0.31
		c-4.27-0.13-8.22-1.41-11.94-3.48c-5.16-2.87-9.53-6.7-13.48-11.04c-2.91-3.2-5.53-6.62-7.71-10.37c-0.87-1.49-1-2.76-0.2-4.44
		c4.51-9.55,9.75-18.62,16.77-26.58c9.39-10.66,21.07-17.33,34.98-20.19c5.76-1.18,11.59-1.91,17.42-2.59
		c1.62-0.19,2.82-0.68,3.97-1.98c5.69-6.44,11.99-12.2,19.58-16.39c6.65-3.66,13.79-5.38,21.37-5.5c6.98-0.11,13.89,0.71,20.83,1.17
		c8.3,0.55,16.53,0.26,24.69-1.46c9.02-1.9,18.09-2.04,27.19-0.67c16.96,2.55,32.01,9.49,45.47,20.01c2.84,2.22,5.23,4.94,7.96,7.28
		c3.66,3.13,7.54,5.99,11.81,8.18c10.12,5.2,16.76,13.33,20.88,23.76c1.89,4.8,3.85,9.56,4.63,14.71c0.5,3.3,0.67,6.64,0.24,9.92
		c-0.79,5.98,1.51,10.58,5.71,14.54c3.31,3.12,6.9,5.95,9.93,9.39c5.36,6.07,9.11,13,11.17,20.83c0.27,1.03,0.69,1.21,1.66,1
		c6.42-1.39,12.89-2.37,19.47-2.53c1.02-0.02,2.05-0.09,3.35,0.26c-3.31,0.49-6.32,0.9-9.32,1.4c-4.54,0.75-9,1.85-13.36,3.32
		c-0.69,0.23-0.83,0.51-0.69,1.21c0.39,1.96,0.74,3.93,0.8,5.93c0.02,0.71,0.3,0.87,0.99,0.67c7.04-2.02,14.19-3.53,21.41-4.74
		c6.66-1.12,13.36-1.99,20.07-2.72c0.39-0.04,0.79-0.01,1.51-0.01c-5.63,1.3-10.96,2.51-16.28,3.75c-8.91,2.08-17.79,4.3-26.55,6.95
		c-0.7,0.21-0.96,0.52-0.96,1.25c0,1.16-0.09,2.32-0.2,3.47c-0.08,0.76,0.16,0.97,0.92,0.9c5.18-0.42,10.36-0.86,15.54-1.17
		c7.82-0.47,15.65-0.79,23.49-0.44c3.42,0.15,6.84,0.28,10.42,0.68c-0.54,0.42-1.03,0.34-1.48,0.35
		c-10.72,0.12-21.4,0.93-32.06,2.01c-5.45,0.55-10.87,1.27-16.31,1.89c-0.83,0.09-1.28,0.4-1.43,1.27
		c-0.23,1.38-0.68,2.71-1.17,4.02c-0.46,1.25-0.44,1.26,0.85,1.13c3.26-0.34,6.52-0.69,9.78-1.01c4.26-0.42,8.53-0.56,12.81-0.72
		c5.96-0.23,11.91,0.06,17.86,0.35c1.07,0.05,2.14,0.19,3.22,0.5c-0.42,0-0.85,0-1.27,0c-10.89-0.08-21.72,0.8-32.54,1.93
		c-3.81,0.4-7.62,0.92-11.43,1.35c-0.57,0.06-0.94,0.25-1.23,0.77c-4.16,7.53-10.62,12.22-18.62,14.96
		c-0.58,0.2-0.98,0.42-1.09,1.08c-0.96,5.82-3.4,11.05-6.48,16.01c-4.79,7.72-10.83,14.33-17.91,20c-0.37,0.3-0.76,0.59-1.16,0.86
		c-0.43,0.3-0.66,0.17-0.68-0.36c0-0.12-0.02-0.24-0.02-0.36c-0.02-8.6-0.04-17.19,1.41-25.71c0.19-1.1,0.05-1.21-1.02-0.82
		c-1.21,0.44-2.1,1.28-2.82,2.32c-2.1,3.04-2.93,6.55-3.53,10.11c-1.26,7.53-1.52,15.1-0.71,22.7c0.08,0.77-0.05,1.85,0.67,2.15
		c0.54,0.22,1.16-0.68,1.71-1.11c4.03-3.12,7.49-6.84,11.01-10.5c0.24-0.24,0.4-0.73,0.8-0.59c0.38,0.13,0.27,0.64,0.31,0.96
		c0.65,5.44,0.04,10.78-1.63,15.97c-1.94,6.04-4.76,11.61-9.12,16.29c-0.31,0.33-0.29,0.6-0.11,0.95c4.18,8.45,3.84,17.1,0.47,25.59
		c-6.03,15.16-16.61,26.26-31.21,33.51c-5.26,2.62-10.84,3.36-16.69,2.64c-6.81-0.84-13.37-2.41-19.42-5.72
		c-9.26-5.07-14.98-12.87-17.64-23c-0.12-0.46-0.25-0.91-0.49-1.35c-0.61,6.83-0.13,13.53,2.38,20.28
		c-1.93-1.01-3.52-2.05-5.05-3.16c-3.76-2.7-7-5.95-10.02-9.44c-0.68-0.79-0.99-0.94-1.78,0.02c-3.73,4.46-8.51,6.88-14.4,7
		c-1.07,0.02-1.11-0.3-0.73-1.16c3.46-7.84,2.34-15.62-0.4-23.36c-0.04-0.1-0.13-0.18-0.32-0.42c-0.71,7.36-4.07,13.43-8.25,19.14
		c-1.64,2.24-3.36,4.41-5.16,6.38c0.82-14.3-4.36-26.33-13.33-37.25c-0.61,0.81-0.55,1.47-0.7,2.06c-1,4.07-3.12,7.5-5.93,10.54
		c-3.28,3.55-7.2,6.31-11.13,9.07c-0.17,0.12-0.33,0.22-0.55,0.13L214.41,518.98z M361.34,285.71l-0.03-0.02
		c0,0,0.04,0.01,0.04,0.01c0.08,0.08,0.16,0.16,0.24,0.23c-0.01,0.09-0.09,0.24,0.12,0.17c-0.05-0.05-0.09-0.1-0.14-0.15
		C361.5,285.87,361.42,285.79,361.34,285.71z M127.53,312.84c0.08-0.17,0.15-0.34,0.23-0.51c0.31-0.41,0.67-0.8,0.94-1.24
		c2.07-3.41,4.77-6.28,7.65-8.98c7.01-6.55,15.49-10.35,24.56-13.03c7.63-2.26,15.44-3.8,23.15-5.75c8.86-2.25,17.5-5.1,25.51-9.62
		c0.46-0.26,0.86-0.69,1.83-0.71c-8.55,9.82-18.82,15.87-31.75,17.65c0.41,0.18,0.58,0.28,0.76,0.33c4.83,1.28,9.69,2.47,14.69,2.83
		c5.29,0.38,10.4-0.21,14.93-3.28c1.04-0.7,1.99-1.53,2.98-2.29c-4.54,9.68-11.76,16.7-21.37,21.57c3.08,0.64,5.9,0.37,8.71-0.37
		c2.82-0.74,5.28-2.22,7.75-3.73c-1.14,2.35-2.99,4.06-4.71,5.88c-2.86,2.12-5.88,3.98-9.05,5.6c-6.87,3.51-13.01,7.97-17.96,13.96
		c-1.86,2.25-3.6,4.57-5.12,7.11c2.1-0.95,3.84-2.48,5.94-3.4c2.1-0.93,4.22-1.78,6.57-2.05c-7.5,5.79-12.74,13.15-15.9,22.03
		c-3.38,9.5-2.9,20.82-0.94,27.05c0.31-0.14,0.29-0.47,0.37-0.71c1.87-5.79,4.25-11.37,7.13-16.74c1.89-3.53,4.01-6.92,6.78-9.85
		c0.43-0.45,0.83-0.99,1.59-1.25c-5.37,12.05-6.47,24.35-3.84,37.04c2.65-6.13,4.69-12.49,8.21-18.2c0.26,4.21,1.94,7.8,4.11,11.21
		c0.54,0.84,1.05,1.7,1.62,2.52c6.12,8.71,8.9,18.49,9.29,29.03c0.31,8.51-0.38,16.95-1.8,25.32c-1.57,9.23-0.66,18.14,2.86,26.8
		c2.68,6.59,6.53,12.53,10.23,18.55c2.45,3.99,4.8,8.02,6.37,12.46c0.73,2.07,1.16,4.2,1.6,6.39c6.62-9.72,8.36-20.43,6.41-31.89
		c0.36,0.01,0.43,0.22,0.54,0.38c4.26,6.29,8.54,12.56,12.77,18.86c3.92,5.84,6.75,12.14,7.97,19.11c0.27,1.55,0.52,3.1,0.79,4.68
		c0.48-0.22,0.6-0.59,0.77-0.89c1.95-3.38,3.02-7.03,3.35-10.91c0.49-5.77-0.49-11.39-1.82-16.97c-2-8.35-4.75-16.5-6.94-24.79
		c-2.16-8.16-3.89-16.4-4.5-24.84c-0.14-1.89-0.24-3.78-0.35-5.66c-0.11-0.01-0.22-0.03-0.34-0.04c-6.02,8.77-6.86,18.77-6.65,29.06
		c-5.93-10.68-10.22-21.97-13.48-33.74c-5.33,14.16-7.45,28.65-4.65,43.71c-0.76-0.69-0.9-1.6-1.23-2.41
		c-4.17-10.22-5.55-20.9-4.84-31.84c0.78-11.89,3.86-23.21,8.83-34.02c0.77-1.68,1.52-3.38,2.69-4.91
		c0.02,7.04,1.24,13.9,2.75,20.71c1.51,6.79,3.44,13.46,5.64,20.11c2.85-9.65,9.12-17.23,14.7-25.23c0.17,3.15,0.46,6.24,1.07,9.29
		c0.72,3.62,1.66,7.16,3.47,10.41c0.28,0.51,0.51,1.13,1.23,1.44c1.34-10.09,6.35-18.05,13.55-24.84
		c-4.55,9.51-6.23,19.51-5.18,29.94c1.04,10.39,4.61,19.87,10.63,28.44c-0.03-3.12-0.48-6.19-0.36-9.29
		c0.12-3.12,0.41-6.21,1.61-9.19c0.44,4.07,1.82,7.83,3.68,11.43c1.86,3.6,3.97,7.03,6.51,10.16c-4.74-18.88-2.53-36.61,8.32-53.15
		c-4.08,1.96-8.07,3.86-11.73,6.39c-3.1,2.14-5.73,4.72-7.5,8.11c-0.29,0.55-0.37,1.22-0.9,1.69c-0.05-0.15-0.13-0.26-0.12-0.37
		c0.01-1.4,0-2.8,0.06-4.19c0.28-6.67,1.89-12.94,5.6-18.58c2.12-3.22,4.72-6.05,7.14-9.02c2.26-2.77,4.19-5.74,5.43-9.13
		c0.09-0.26,0.29-0.56,0.12-0.79c-0.21-0.28-0.51-0.04-0.77,0.02c-4.48,1.02-8.95,2.05-13.36,3.35c-0.19,0.01-0.39-0.01-0.58,0.04
		c-3.68,0.95-7.36,1.9-11.04,2.86c-8.03,2.09-16,4.38-23.86,7.01c-0.55,0.18-1.08,0.4-1.77,0.16c5.46-2.74,11.03-5,16.67-7.08
		c4.38-1.61,8.79-3.14,13.18-4.7c0.12-0.01,0.24,0,0.35-0.04c10.65-3.43,21.43-6.43,32.36-8.86c0.81-0.18,1-0.54,1.03-1.29
		c0.22-5.02,1.01-9.93,2.87-14.63c0.25-0.64,0.18-0.9-0.55-1.04c-2.27-0.46-4.53-0.95-6.78-1.51c-0.85-0.21-1.37-0.06-1.93,0.66
		c-3,3.89-5.9,7.86-9.11,11.6c-2.29,2.67-4.62,5.31-7.71,7.12c-0.29,0.17-0.59,0.67-1.02,0.19c1.27-2.1,2.58-4.18,3.05-6.66
		c-0.18-0.04-0.28-0.1-0.33-0.07c-0.28,0.15-0.56,0.31-0.82,0.48c-4.43,2.96-9.27,4.95-14.46,6.16c-5.62,1.31-11.39,1.52-17.08,2.26
		c-6.32,0.83-11.68,3.16-14.96,9.03c-0.37,0.67-0.48,1.59-1.33,2.06c0.03-1.63,0.58-3.07,0.83-4.56c1.03-6.07,3.39-11.28,9.05-14.48
		c1.22-0.69,1.13-0.83-0.05-1.56c-4.21-2.61-7.97-5.73-10.87-9.8c0.07-0.05,0.14-0.11,0.21-0.16c6.16,0.78,12.74,0.29,14.36-1.1
		c-0.43-0.17-0.83-0.34-1.24-0.49c-4.07-1.53-7.62-3.88-10.5-7.13c-6.93-7.81-9.17-17.09-8.44-27.28
		c0.87-9.17,6.9-22.67,11.55-25.75c-0.14,0.42-0.24,0.76-0.37,1.08c-1.55,3.82-2.82,7.73-3.78,11.74
		c-1.64,6.81-2.49,13.68-1.36,20.67c1.64,10.16,7.31,16.88,17.17,19.96c3.22,1,6.54,1.5,9.91,1.62c0.3,0.01,0.71-0.16,0.87,0.2
		c0.15,0.34-0.23,0.56-0.41,0.8c-0.7,0.97-1.43,1.92-2.16,2.88c-2.52,3.3-5.7,5.68-9.67,6.98c-0.36,0.12-0.8,0.1-1.12,0.55
		c1.61,1.33,3.45,2.28,5.33,3.12c3.37,1.52,6.89,2.28,10.61,1.9c5.44-0.55,9.91-3.14,13.98-6.58c1.3-1.1,2.52-2.28,3.78-3.43
		c0.07,0.04,0.14,0.08,0.21,0.12c-0.43,1.5-0.86,2.99-1.31,4.57c0.68-0.09,1-0.53,1.38-0.84c2.3-1.87,4.35-4.01,6.49-6.05
		c0.55-0.53,1.6-1.03,1.39-1.74c-0.16-0.55-1.35-0.43-2.08-0.58c-0.12-0.02-0.23-0.07-0.35-0.1c-3.4-0.68-6.74-1.84-10.23-0.05
		c-1.5,0.77-3.31,0.97-5.1,0.98c1.3-1.13,2.93-1.8,4.27-3.11c-8.77-1.73-17.36-3.2-26.2-4.52c0.55-0.39,0.95-0.34,1.33-0.34
		c2.04-0.01,4.08-0.07,6.12,0c7.24,0.24,14.43,1.01,21.6,1.97c0.63,0.08,1.05-0.03,1.49-0.46c1.3-1.25,2.52-2.56,3.59-4.02
		c1.26-1.72,1.24-1.6-0.79-2.03c-8.82-1.89-14.45-7.38-17.49-15.73c-0.19-0.51-0.14-1.11-0.57-1.6c-0.19,0.17-0.39,0.31-0.54,0.48
		c-1.8,2.15-3.56,4.32-4.5,7.03c-0.07,0.21-0.08,0.52-0.39,0.54c-0.28,0.02-0.38-0.25-0.49-0.46c-0.1-0.17-0.19-0.35-0.28-0.53
		c-2.14-4.04-2.65-8.45-2.74-12.9c-0.14-7.22,1.01-14.25,3.57-21.02c1.01-2.65,2.18-5.24,4.02-7.45c-0.02,0.2,0,0.4-0.05,0.59
		c-2.53,9.05-2.91,18.3-2.55,27.62c0.02,0.53,0.02,1.08,0.31,1.67c2.52-2.17,4.95-4.26,7.46-6.42c0.11,0.52,0.21,1,0.31,1.48
		c-0.38,1.31-0.04,2.61,0.04,3.91c0.48,7.94,5.39,14.01,13.09,16c7.85,2.03,15.38,0.81,22.63-2.58c0.36-0.17,0.69-0.45,1.36-0.4
		c-6.11,6.5-12.4,12.5-20.16,17.34c2.34,0.38,4.28,0.62,6.19,1.02c0.92,0.19,1.48-0.08,2.11-0.67c2.53-2.39,5.18-4.64,7.98-6.71
		c5.28-3.9,10.9-7.15,17.38-8.64c1.39-0.32,2.81-0.5,4.26-0.43c-1.35,0.68-2.79,1.06-4.13,1.71c-7.48,3.6-12.99,9.46-18.23,15.66
		c-0.6,0.71-0.13,0.83,0.46,0.95c1.96,0.39,3.92,0.76,5.87,1.19c0.74,0.16,1.13-0.1,1.56-0.71c3.11-4.42,6.95-8.01,11.89-10.34
		c12.3-5.79,26.5-1.49,33.2,9.19c0.15,0.23,0.32,0.47,0.54,0.63c5.03,3.79,8.82,8.65,12.1,13.96c1.09,1.76,2.14,3.58,3.62,5.06
		c1.23,1.23,1.28,1.19,1.75-0.43c1.1-3.85,3.43-6.55,7.34-7.7c2.91-0.86,5.86-0.72,8.79-0.12c5.47,1.13,10.3,3.61,14.74,6.94
		c0.34,0.26,0.62,0.6,1.14,0.57c3.4-0.23,6.34-1.29,8.1-4.48c1.57-2.84,1.73-5.94,1.71-9.08c0-0.75-0.2-1.52,0.13-2.4
		c1.71,2.96,3.1,5.86,3.69,9.09c0.08,0.42-0.11,1.13,0.71,1.14c-0.19,0.43-0.48,0.78-0.4,1.33c0.3,2.03,0.2,4.07,0.18,6.11
		c-0.04,4.77-0.81,9.4-3.23,13.6c-3.21,5.58-7.69,9.66-13.98,11.52c-1.37,0.41-1.68,1.02-0.96,2.27c0.55,0.95,1.44,1.48,2.41,1.88
		c1.28,0.52,2.62,0.74,3.99,0.72c5.64-0.1,10.25-2.48,14.1-6.46c0.87-0.9,1.72-1.83,2.38-3.08c-0.33,0.02-0.49,0.02-0.64,0.04
		c-3.28,0.45-6.57,0.91-9.85,1.33c-0.71,0.09-1.43-0.03-1.5-0.96c-0.06-0.83,0.52-1.12,1.22-1.17c3.83-0.26,7.61-0.97,11.42-1.39
		c0.65-0.07,0.97-0.35,1.25-0.9c0.76-1.5,1.36-3.07,1.95-4.64c0.33-0.87,0.27-1.23-0.81-1.03c-1.41,0.26-2.85,0.4-4.28,0.53
		c-0.9,0.08-1.62-0.32-1.75-1.26c-0.12-0.87,0.44-1.4,1.23-1.67c0.26-0.09,0.54-0.14,0.82-0.18c1.7-0.26,3.39-0.57,5.1-0.73
		c0.8-0.07,1-0.46,1.11-1.1c1.63-9.75,0.72-19.19-3.47-28.22c-0.2-0.43-0.44-0.84-0.66-1.26c-0.37,2.49-0.64,4.87-1.36,7.16
		c-0.85,2.72-1.95,5.31-4.06,7.34c-0.18-0.49,0.19-0.83,0.36-1.22c1.15-2.7,1.72-5.5,1.47-8.42c-0.55-6.21-3.27-11.37-7.79-15.62
		c-1.05-0.98-2.17-1.9-3.74-2.61c2.55,4.66,2.49,9.27,1.3,13.96c-0.36-1.04-0.53-2.11-0.82-3.15c-1.57-5.44-5.05-9.48-9.6-12.64
		c-6.28-4.36-13.28-6.35-20.93-6.09c-0.58,0.02-1.18,0.17-1.71-0.31c-4.51-4.17-10.01-6.51-15.74-8.41
		c-1.29-0.43-2.66-0.65-3.87-1.4c2.14-0.28,4.28-0.33,6.42-0.22c3.91,0.19,7.88,0.29,10.97,3.52c0.05-2.65-0.91-4.65-2.86-6.19
		c-2.14-1.69-4.67-2.38-7.3-2.82c-2.07-0.35-4.17-0.36-6.59-0.48c2.78-2.18,5.49-3.67,8.78-3.77c0.63-0.02,1.12-0.06,1.48-0.72
		c1.71-3.09,3.16-6.28,4.01-9.72c1.93-7.84,0.21-14.8-5.05-20.9c-0.29-0.33-0.53-0.75-1.31-0.99c3.01,4.46,4.21,9.12,3.43,14.19
		c-0.77,4.99-3.03,9.28-6.16,13.23c-0.06-13.59-6.58-22.96-18-29.34c-0.02-0.21-0.03-0.42-0.05-0.63c0.4,0.16,0.79,0.38,1.2,0.47
		c6.04,1.34,11.35,3.99,15.59,8.59c0.17,0.18,0.3,0.51,0.68,0.37c0.2-0.46,0.05-0.94,0.01-1.4c-0.4-4.26-2.81-7.33-6.03-9.83
		c-5.58-4.35-12.12-6.55-18.87-8.25c-3.92-0.99-7.91-1.59-12.01-2.01c0.4-0.4,0.82-0.35,1.21-0.39c5.54-0.62,11.09-0.67,16.64-0.05
		c8.23,0.91,15.95,3.3,22.85,8c5.5,3.74,9.52,8.62,11.34,15.12c0.4,1.42,0.64,2.89,0.99,4.5c0.6-1.03,0.88-1.99,1.15-2.93
		c1.86-6.36-0.12-12.32-5.68-16.06c-2.73-1.83-5.59-3.41-8.76-4.38c-0.43-0.13-0.79-0.3-1.08-0.68c-2.14-2.89-4.96-4.96-8.09-6.64
		c-6.86-3.67-14.31-5.45-21.91-6.73c-1.34-0.23-2.72-0.26-4.33-0.79c2.25-0.96,4.3-1.38,6.4-1.62c2.1-0.24,4.21-0.19,6.32-0.31
		c-8.03-2.36-16.41-2.21-24.59-3.63c4.79-1.88,9.8-2.12,14.83-2.35c-13.74-2.92-27.46-2.79-41.2-0.14
		c14.94,1.2,28.92,5.36,42.06,12.74c-0.46,0.54-0.66,0.27-0.86,0.21c-6.18-1.89-12.54-2.8-18.96-3.32
		c-7.03-0.57-14.06-0.53-21.06,0.45c-6.57,0.93-12.94,2.5-18.65,6.11c-0.22,0.14-0.49,0.46-0.9,0.16
		c6.1-8.19,14.33-11.78,24.45-11.43c-5.97-1.56-11.98-2.21-18.08-1.55c-8.7,0.94-16.39,4.24-23.07,10.01
		c-0.03-0.22-0.07-0.3-0.04-0.36c0.08-0.18,0.18-0.36,0.29-0.52c4.72-6.91,10.91-11.81,19.1-14.02c5-1.35,10.15-1.75,15.26-2.42
		c0.77,0.23,1.44-0.29,2.18-0.34c-1.77-0.32-3.55-0.34-5.33-0.27c-13.49-0.4-26.9-0.2-39.68,5.2c2.98-3.16,6.68-4.96,10.7-6.23
		c-7.56-0.05-14.86,1-21.65,4.42c-4.79,2.41-8.67,5.83-11.29,10.58c-1.38,2.49-2.29,5.15-2.81,8.29c9.09-7.6,19.5-11.16,30.79-12.58
		c-5.09,2.1-9.56,5.12-13.48,8.93c-3.93,3.83-7.47,7.93-9.04,13.38c1.56-0.97,3.12-1.85,4.78-2.55c1.62-0.69,3.29-1.23,5-1.66
		c1.7-0.43,3.39-0.88,5.17-0.97c-0.29,0.31-0.61,0.52-0.95,0.72c-3.6,2.15-7.32,4.12-10.59,6.78c-4.44,3.61-7.38,8.36-9.96,13.36
		c-0.48,0.93-0.97,1.86-1.46,2.79c-0.09-0.04-0.19-0.08-0.28-0.12c0.85-8.32,1.95-16.59,6.09-24.24c-0.31,0.03-0.5,0-0.6,0.08
		c-1.76,1.37-3.52,2.75-5.27,4.14c-1.89,1.5-3.41,3.38-5.16,5.01c-0.2,0.19-0.36,0.52-0.66,0.45c-0.4-0.1-0.29-0.52-0.33-0.81
		c-0.13-0.99-0.26-1.98-0.34-2.98c-0.39-4.75,0.01-9.42,1.61-13.94c2.49-7.04,7.41-11.91,13.83-15.44c1.95-1.07,4.03-1.85,6.03-2.82
		c-3.42,0-6.77,0.44-10.08,1.15c-11.47,2.46-19.79,8.83-24.23,19.84c-0.53,1.32-1.27,1.77-2.56,1.97
		c-11.86,1.89-23.57,4.38-34.86,8.58c-13,4.84-23.72,12.46-30.7,24.75c-1.51,2.66-3.09,5.29-4.15,8.17
		C127.69,312.51,127.61,312.67,127.53,312.84l-0.03,0.03C127.5,312.87,127.53,312.84,127.53,312.84z M255.89,397.91
		c-0.56,0.05-1.06,0.28-1.76,0.62c0.8-0.01,1.32-0.16,1.81-0.42c0.11-0.12,0.39,0.02,0.39-0.26
		C256.18,397.87,256.03,397.89,255.89,397.91z M257.5,397.68c1.99-0.52,3.99-1,5.97-1.56c8.03-2.25,16.08-4.41,24.18-6.39
		c9.89-2.42,19.83-4.61,29.94-5.92c2.58-0.33,5.16-0.59,7.74-0.88c0.41-0.05,0.88-0.04,0.84-0.6c-0.03-0.47-0.41-0.65-0.87-0.61
		c-0.24,0.02-0.48,0.02-0.72,0.04c-4.42,0.38-8.82,0.94-13.19,1.72c-12.43,2.22-24.66,5.3-36.84,8.59
		c-5.81,1.57-11.58,3.29-17.24,5.37c-0.23,0.07-0.52,0.03-0.63,0.35C256.99,397.96,257.24,397.78,257.5,397.68z M268.28,358.97
		c-0.78-0.18-1.56-0.41-2.58-0.18c0.99,0.19,1.76,0.5,2.6,0.46c4.54,0.93,9.06,1.93,13.62,2.76c7.3,1.34,14.57,2.87,21.82,4.47
		c13.06,2.88,26.01,6.17,38.67,10.51c0.37,0.13,0.87,0.38,1.04-0.09c0.19-0.5-0.38-0.59-0.74-0.73c-3.22-1.29-6.49-2.46-9.8-3.52
		c-17.01-5.47-34.49-8.87-52.08-11.77C276.66,360.19,272.47,359.6,268.28,358.97z M181.9,307.7c-0.02,0.05-0.04,0.1-0.06,0.15
		c0.02-0.05,0.04-0.09,0.06-0.14c-9.39-3.89-19.09-5.79-29.29-4.6c11.39-3.89,22.94-3.58,34.78-1.31c-0.67-0.58-1.21-0.94-1.81-1.24
		c-4.67-2.3-9.67-3.32-14.82-3.5c-11.75-0.4-22.72,2.42-32.89,8.32c-4.32,2.5-8.16,5.61-11.28,9.55c-0.44,0.55-0.67,1-0.19,1.69
		c3.54,5.09,7.13,10.13,11.64,14.43c6.87,6.56,14.71,9.04,23.96,5.82c1.05-0.37,1.64-0.96,2.09-1.92c1.73-3.69,3.5-7.36,5.96-10.65
		c0.3-0.4,0.77-0.69,0.84-1.35c-4.58,1.11-9.17,1.49-13.82,1.27c-4.62-0.22-9.14-0.97-13.48-2.61c0.46-0.08,0.9-0.11,1.33-0.08
		c5.77,0.37,11.41-0.29,16.89-2.13c2.72-0.91,5.42-1.91,8.14-2.83c0.72-0.25,1.48-0.37,2.44-0.61c-1.77-0.98-3.43-1.56-5.1-2.06
		c-7.96-2.38-16.04-2.41-24.2-1.13c1.45-1.07,3.08-1.7,4.73-2.24c10.71-3.48,21.66-4.21,32.8-2.8
		C181.06,307.78,181.49,307.95,181.9,307.7z M363.97,521.4c0.72-0.61,1.28-1.03,1.78-1.51c4.08-3.91,6.11-8.81,6.85-14.31
		c0.47-3.52,0.45-7.02-0.68-10.44c-0.23-0.7-0.43-1.09-1.33-0.69c-3.63,1.61-7.33,1.67-11.11,0.41c-4.01-1.33-8.1-2.1-12.37-1.87
		c-5.23,0.29-10.26,1.53-15.24,3.02c-7.34,2.2-14.81,2.95-22.39,1.5c-9.15-1.75-16.31-6.67-21.89-14.02
		c-0.24-0.31-0.39-0.75-0.9-0.87c-0.06,1.64,0.12,3.19,0.23,4.74c0.51,7.25,3.76,13.19,8.71,18.34c0.36,0.37,0.58,0.48,1.06,0.09
		c1.64-1.33,3.59-2.05,5.63-2.52c0.27-0.06,0.58-0.24,0.8-0.02c0.25,0.25-0.04,0.51-0.15,0.75c-1.56,3.48-2.74,7.08-3.21,10.87
		c-0.93,7.5,0.83,14.13,6.52,19.41c3.29,3.05,6.89,5.27,11.65,4.27c7.6-1.59,12.43-6.17,14.59-13.61c0.15-0.53,0.11-1.14,0.65-1.77
		c1.27,7.33,2.29,14.39-3.45,20.66c1.08-0.36,1.83-0.59,2.57-0.85c5.53-1.98,10.28-4.97,13.33-10.18c2.16-3.69,3.17-7.74,3.69-11.93
		c0.13-1.03,0.2-2.07,0.28-3.1c0.08-1.02,0.14-2.05,0.21-3.08c2.69,6.84,2.42,13.72,0.53,20.67c3.39-3,6.12-6.39,7.83-10.53
		c1.49-3.61,1.84-7.42,1.96-11.27c0.05-1.58,0.01-3.16,0.31-5.06C362.88,512.6,363.98,516.71,363.97,521.4z M353.34,389.59
		c-0.43-0.51-0.89-0.68-1.34-0.88c-11.82-5.47-23.78-10.59-36.1-14.86c-0.81-0.28-1.26-0.6-1.18-1.58c0.06-0.7-0.21-1.57-0.98-1.75
		c-0.97-0.23-2.04-1.09-3.01-0.05c-0.47,0.5-0.83,0.26-1.26,0.05c-1.57-0.76-1.63-0.74-2.26,0.92c-1.03,2.69,0.01,4.58,2.63,4.7
		c0.51,0.02,1.04-0.07,1.54-0.18c0.56-0.12,0.88,0.04,1.12,0.58c0.42,0.96,1.08,1.76,1.68,2.61c1.07,1.52,2.31,2.3,4.32,1.86
		c2.45-0.55,5.01-0.23,7.49-0.72c1.27-0.25,2.41,0.53,2.55,1.6c0.15,1.16-0.72,2.12-2.06,2.29c-1.73,0.22-3.49,0.25-5.45,0.69
		c3.07,2.08,6.17,3.62,9.3,5.1c3.11,1.47,6.29,2.77,9.49,4c3.19,1.23,6.39,2.42,9.59,3.64c-0.04,0.11-0.07,0.21-0.11,0.32
		c-13.05-2.51-25.79-6.26-38.54-10.06c2.66,3.62,5.97,6.47,9.66,8.91c0.42,0.28,0.82,0.19,1.26,0.07c1.31-0.37,2.61-0.75,3.93-1.07
		c1.24-0.29,2.44-0.81,3.75-0.64c1.22,0.15,1.89,1.17,1.54,2.35c-0.26,0.88-0.99,1.21-1.76,1.46c-0.93,0.3-1.88,0.55-3.05,0.89
		c1.43,0.86,2.79,1.3,4.09,1.87c0.62,0.27,1.13,0.2,1.69-0.14c1.57-0.95,3.17-1.87,4.74-2.81c0.69-0.41,1.4-0.73,2.24-0.78
		c0.92-0.05,1.84-0.1,2.25,0.91c0.43,1.07-0.29,1.74-1.06,2.29c-1.04,0.75-2.11,1.44-3.16,2.17c-0.08,0.05-0.1,0.2-0.13,0.28
		c0.22,0.31,0.79,0,0.84,0.53c-9.98,4.16-14.36,16.98-12.52,25.54c0.15-3.91,0.93-7.66,2.55-11.22c1.69-3.71,5.73-7.88,7.97-8.14
		c-0.33,0.51-0.64,0.98-0.93,1.45c-0.92,1.46-1.76,2.95-2.25,4.61c-0.1,0.32-0.29,0.76,0.07,0.98c0.32,0.2,0.56-0.21,0.81-0.38
		c10.25-7.23,21.75-9.67,34.08-8.96c2.15,0.12,4.25,0.76,6.43,0.62c2.01-0.13,2.71-1.15,2.03-3.07c-0.22-0.62-0.62-1.11-1.09-1.55
		c-0.83-0.77-1.74-1.42-2.71-1.97c-1.95-1.1-3.56-2.57-4.95-4.3c-3.09-3.81-4.94-8.28-6.73-12.78c-2.09-5.23-3.91-10.56-6.46-15.6
		c-3.25-6.42-8.05-11.17-14.74-13.93c-3.57-1.47-7.25-2.24-11.12-1.56c-0.57,0.1-1.31,0.03-1.57,0.66
		c-0.27,0.65,0.34,1.07,0.72,1.52c0.88,1.05,1.95,1.89,3.01,2.74c4.07,3.29,8.44,6.21,12.29,9.77c0.8,0.74,1.61,1.5,2.12,2.54
		c-0.45,0.16-0.68-0.13-0.93-0.28c-2.83-1.73-5.73-3.34-8.73-4.77c-4.85-2.31-9.77-4.44-15.21-4.82c-3.07-0.21-5.9,0.34-7.84,3.12
		c-0.58,0.83-0.28,1.02,0.52,1.22c3.99,1.01,7.96,2.05,11.94,3.09c0.62,0.16,1.03,0.25,1.36-0.57c0.41-1.02,1.82-1.37,2.92-0.95
		c1.04,0.39,1.51,1.21,1.18,2.4c-0.15,0.56,0,0.71,0.45,0.84c0.58,0.16,1.15,0.33,1.72,0.52c1.16,0.37,2.27,0.92,3.56,0.43
		c0.57-0.22,1.33,0.01,1.6,0.56c0.52,1.09,1.51,1.31,2.45,1.69c1.33,0.54,2.65,1.11,3.96,1.71c1.04,0.48,1.45,1.34,1.01,2.2
		c-0.46,0.91-1.23,0.97-2.15,0.68c-2.28-0.72-4.58-1.42-6.88-2.07c-1.01-0.29-2.06-0.45-3.09-0.67c-0.03,0.1-0.06,0.21-0.08,0.31
		c2.6,1.29,5.17,2.64,7.68,4.1c4.39,2.55,8.75,5.15,12.69,8.38C353.02,388.52,353.53,388.73,353.34,389.59z M300.38,434.13
		c0.52-0.18,0.84,0.13,1.19,0.29c1.84,0.85,3.38,2.13,4.81,3.51c3.97,3.82,7.15,8.27,9.95,12.98c3.23,5.43,6.2,10.99,8.25,16.99
		c0.33,0.95,0.78,0.77,1.44,0.47c2.91-1.32,5.82-2.63,8.75-3.89c2.39-1.02,4.8-1.98,7.22-2.92c1.11-0.43,1.21-0.32,1.06,0.89
		c-0.07,0.59-0.14,1.19-0.22,1.78c-0.51,4.16-1.05,8.31-2.42,12.31c-1.02,2.97-2.51,5.69-4.33,8.24c-0.23,0.32-0.77,0.74,0.15,0.86
		c2.71,0.36,5.42,0.44,8.09-0.32c2.29-0.66,3.7-2.16,3.98-4.57c0.12-1.03,0.09-2.07-0.07-3.11c-0.52-3.31-1.13-6.58-1.11-9.98
		c0.04-6.55-2.89-11.64-8.25-15.36c-0.22-0.15-0.54-0.2-0.45-0.73c1.88,0.1,3.66,0.55,5.32,1.45c2.69,1.46,4.49,3.77,6.14,6.26
		c0.31,0.47,0.44,1.34,1.12,1.25c0.72-0.1,0.73-0.99,0.88-1.56c0.72-2.67,0.85-5.43,1.15-8.17c0.23-2.11-0.28-3.76-1.79-5.17
		c-0.99-0.93-1.32-2.14-1.44-3.45c-0.19-2.01,0.38-3.87,0.93-5.75c0.5-1.7,1.24-3.33,1.47-5.39c-1.33,1.41-1.98,3.07-3.56,4.22
		c0.39-4.14,1.27-7.95,1.19-11.86c-0.53,0.03-0.55,0.37-0.66,0.6c-3.22,7.09-6.33,14.23-10.18,21.01
		c-2.34,4.12-5.09,7.93-8.47,11.25c-1.17,1.15-1.43,1.09-2.03-0.4c-0.94-2.35-1.51-4.8-1.98-7.27c-1.02-5.31-1.54-10.67-1.44-16.08
		c0.01-0.51-0.09-0.92-0.51-1.26c-2.14-1.74-4.25-3.5-6.61-4.94c-3.63-2.22-7.44-3.86-11.77-4.01c-0.76-0.03-1.56-0.05-2.2,0.41
		c-4.23,3.08-8.28,6.38-11.93,10.15c-0.28,0.29-0.51,0.63-0.53,1.05c-0.11,1.88-0.25,3.76,0.16,5.61
		c1.23,5.57,4.77,9.08,10.02,10.95c2.94,1.04,5.92,1.94,8.68,3.42c0.41,0.22,0.92,0.7,1.29,0.43c0.49-0.36,0.05-0.98-0.1-1.43
		c-2.17-6.7-5.43-12.76-10.45-17.79C300.84,434.85,300.44,434.66,300.38,434.13z M179.9,458.79c0.78-0.49,1.25-0.77,1.71-1.08
		c5.55-3.77,9.29-8.99,11.7-15.14c4.74-12.11,4.98-24.47,1.54-36.93c-1.34-4.85-3.42-9.37-6.58-13.35c-0.41-0.52-0.65-0.7-1.15-0.07
		c-4.97,6.31-9.29,12.86-8.42,21.51c-0.37-0.47-0.67-0.96-0.92-1.48c-3.13-6.38-4.22-13.19-4.39-20.21
		c-0.07-2.91,0.08-5.82-0.34-8.77c-0.74,1.23-1.41,2.49-2.01,3.77c-2.13,4.59-3.83,9.3-4.16,14.42c-0.37,5.64,1.34,10.81,3.55,15.87
		c2.6,5.97,5.41,11.85,7.57,18.01c1.86,5.32,3.24,10.71,3.01,16.4C180.92,454,180.5,456.23,179.9,458.79z M276.26,506.95
		c0.86,3.63,1.28,7.17,2.35,10.55c1.13,3.57,3.73,8.06,5.24,9.05c-0.34-1.21-0.37-2.4-0.31-3.6c0.19-3.92,0.77-7.8,1.39-11.66
		c0.62-3.8,0.15-7.1-2.37-10.2c-4.63-5.71-7.44-12.26-8.03-19.66c-0.07-0.91-0.15-1.82-0.22-2.73c-3.02,5.75-2.23,11.91-2.34,18.01
		c-7.64-13.37-11.48-28.11-15.74-42.99c-0.11,0.63-0.2,0.98-0.23,1.33c-0.78,10-0.1,19.87,2.46,29.6
		c1.79,6.81,4.45,13.32,6.65,19.99c1.76,5.35,2.95,10.79,2.6,16.47c-0.09,1.42-0.28,2.83-0.44,4.39c1.68-0.78,2.84-1.97,3.79-3.36
		c1.46-2.14,2.36-4.53,3.06-6.99C274.88,512.49,275.52,509.81,276.26,506.95z M382.8,401.79c0.1,0.06,0.19,0.14,0.3,0.18
		c5.64,2.31,11.3,2.83,16.9-0.08c4.66-2.42,7.41-6.41,9.03-11.31c1.21-3.68,1.49-7.44,1.28-11.52c-2.52,3.81-6.21,5.32-10.16,6.41
		c-0.93,0.26-1.65,0.08-2.34-0.68c-1.47-1.63-3.15-3.07-4.95-4.33c-3.96-2.77-8.26-4.51-13.2-4.27c-4.71,0.23-7.68,2.47-8.78,6.67
		c-0.37,1.4,0,1.98,1.44,2.3c0.95,0.22,1.9,0.14,2.86,0.02c1.9-0.22,3.79-0.44,5.73-0.14c4.54,0.7,6.63,3.47,5.98,7.95
		c-0.23,1.64-0.75,3.13-1.71,4.4c5,2.47,9.68,1.55,14.25-1.08c-0.74,1.6-1.88,2.73-3.25,3.62
		C392.01,402.66,387.48,402.48,382.8,401.79z M366.35,422.53c0.06,1.11,0.07,1.89,0.15,2.66c0.05,0.48,0.17,0.94,0.85,0.93
		c1.72-0.02,3.36-0.27,4.65-1.54c0.42-0.42,0.62-0.53,1.09,0c1.45,1.61,3.04,1.76,4.76,0.43c0.75-0.58,1.19-1.03,1.97,0.03
		c0.49,0.66,1.48,0.65,2.35,0.44c0.49-0.11,0.89-0.52,1.53-0.42c-1.35,7.38-0.94,14.84-1.66,22.46c0.36-0.27,0.53-0.37,0.65-0.51
		c4.1-4.44,8.09-8.96,11.27-14.12c2.92-4.73,4.69-9.85,5.33-15.37c0.05-0.47,0.17-0.9-0.38-1.25c-1.96-1.25-4.05-1.87-6.38-1.53
		c-0.44,0.06-0.81,0.11-0.98,0.68c-1.36,4.72-3.54,9.16-4.92,13.88c-0.12,0.43-0.08,0.95-0.62,1.32c-0.1-2.2,0.37-4.27,0.62-6.35
		c0.21-1.7,0.6-3.39,0.58-5.11c0-0.37-0.05-0.77-0.47-0.86c-0.39-0.08-0.54,0.32-0.67,0.58c-0.4,0.79-0.76,1.6-1.15,2.45
		c-1.18-1.74-1.96-2.15-3.24-1.82c-1.35,0.36-2.13,1.41-2.87,2.54c-1.47-2.14-2.31-2.67-3.78-2.36c-0.84,0.17-1.56,0.6-2.21,1.15
		c-0.27,0.23-0.53,0.57-0.9,0.17c-1.21-1.29-2.63-1.15-4.08-0.54c-0.49,0.21-0.79,0.25-1.01-0.34c-0.53-1.4-1.64-2.22-2.95-2.82
		c-2.12-0.96-4.36-1.23-6.66-1.26c-0.75-0.01-0.71,0.24-0.53,0.85c0.78,2.73,1.31,5.52,1.54,8.35c0.18,2.16,0.34,4.33,0.52,6.66
		C362.07,429.4,364.1,426.07,366.35,422.53z M328.69,436.57c-0.03,4.95,0.24,9.37,1.13,13.74c0.07,0.36-0.06,0.92,0.43,1.01
		c0.37,0.07,0.55-0.41,0.77-0.68c3.57-4.15,6.35-8.8,8.69-13.72c2.81-5.9,5-12,6.16-18.45c0.32-1.78,0.24-1.88-1.59-1.91
		c-4.36-0.06-7.93,1.77-11.13,4.58c-2.63,2.31-4.14,5.07-4.22,8.63C328.88,432.21,328.6,434.64,328.69,436.57z M155.87,403.06
		c0.36-0.14,0.41-0.33,0.47-0.52c2.99-8.47,4.59-17.13,3.53-26.14c-0.98-8.3,0.15-16.33,2.86-24.19c0.62-1.79,1.22-3.59,1.93-5.67
		c-0.39,0.33-0.55,0.45-0.69,0.59c-7.95,7.93-12.15,17.48-12.43,28.73c-0.15,6.04,0.73,11.96,2.04,17.82
		C154.28,396.82,155.1,399.93,155.87,403.06z M381.31,462.57c-0.41,0.39-0.61,0.56-0.79,0.75c-1.98,2.04-3.91,4.11-6.06,5.97
		c-6.54,5.65-13.88,7.64-22.28,5c-1.61-0.51-2.09-0.19-2.1,1.54c-0.01,1.9,0.51,3.7,1.11,5.49c0.43,1.27,1.18,2.11,2.53,2.41
		c1.05,0.23,2.06,0.64,3.11,0.87c6.92,1.53,12.96,0.14,17.58-5.54c3.67-4.51,5.32-9.95,6.81-15.44
		C381.28,463.39,381.27,463.15,381.31,462.57z M337.51,467.7c-0.44-0.13-0.75,0.11-1.06,0.26c-4.48,2.13-8.86,4.46-13.06,7.1
		c-2.25,1.41-3.8,3.55-4.62,6.1c-0.78,2.45-0.05,4.54,1.77,6.32c1.69,1.65,3.65,1.88,5.76,1.14c2.08-0.73,3.54-2.28,4.8-4.02
		c3.01-4.14,4.76-8.83,5.97-13.75C337.34,469.82,337.65,468.78,337.51,467.7z M290.36,452.06c1,2.37,2.16,4.23,3.7,5.8
		c1.66,1.69,3.14,3.51,4.64,5.34c2.38,2.89,5.02,5.49,8.42,7.19c2.91,1.45,4.99,1.14,7.33-1.04c2.08-1.93,2.06-2.51-0.17-4.17
		c-1.67-1.24-3.28-2.57-5.16-3.47c-1.35-0.65-2.7-1.04-3.97,0.2c-0.19,0.19-0.48,0.3-0.74,0.39c-0.3,0.1-0.64,0.18-0.9-0.09
		c-0.24-0.26-0.02-0.53,0.05-0.78c0.19-0.69,0.47-1.37,0.58-2.07c0.12-0.82-0.1-1.46-1.12-1.63c-1.12-0.19-2.09-0.78-3-1.45
		c-0.57-0.42-1.06-1.07-1.69-1.29C295.77,454.08,293.21,453.23,290.36,452.06z M279.2,412.51c0.3-0.05,0.42-0.05,0.52-0.09
		c0.3-0.12,0.59-0.24,0.88-0.39c5.96-3.04,10.88-7.26,14.57-12.86c1.82-2.77,3.09-5.76,3.3-9.13c0.05-0.81-0.08-1.14-1.02-0.91
		c-2.83,0.68-5.68,1.31-8.54,1.86c-0.96,0.19-1.21,0.64-1.25,1.53c-0.26,5.77-1.91,11.06-5.4,15.73
		C281.24,409.61,280.28,411,279.2,412.51z M284.25,440.94c0.35-0.52,0.71-1.04,1.04-1.57c2.2-3.57,4.93-6.73,7.88-9.68
		c6.74-6.72,14.64-11.84,22.9-16.46c6.9-3.86,14.09-7.18,20.97-11.1c0.69-0.4,1.37-0.81,2.04-1.26c0.41-0.27,0.54-0.7,0.4-1.16
		c-0.14-0.46-0.56-0.52-0.97-0.58c-0.46-0.06-0.86,0.09-1.26,0.31c-7.73,4.34-15.78,8.09-23.49,12.47
		c-7.53,4.28-14.73,9.01-20.68,15.41C289.35,431.34,286.18,435.74,284.25,440.94z M383.18,309.26c0.32-1.38,0.76-2.66,0.8-4.03
		c0.04-1.41-0.16-2.76-1.46-3.58c-1.22-0.77-2.52-0.48-3.62,0.25c-2.48,1.64-4.59,3.55-4.8,6.85c-0.11,1.75-0.47,3.48-0.75,5.44
		c3.03-2.31,6.31-2.41,9.66-1.96c3.29,0.45,6.33,1.63,9.36,3.57c-1.32-4.1-2.84-7.76-4.75-11.42
		C386.41,306.39,385.17,308.17,383.18,309.26z M272.29,419c0.53,0.05,0.84-0.24,1.18-0.4c2.72-1.27,5.43-2.6,8.17-3.83
		c15.03-6.75,30.61-12.01,46.38-16.72c0.72-0.21,1.93-0.31,1.61-1.33c-0.31-0.97-1.37-0.42-2.09-0.2
		c-6.15,1.85-12.32,3.66-18.44,5.6c-9.45,2.98-18.75,6.39-27.52,11.07C278.37,414.91,275.19,416.65,272.29,419z M379.78,329.75
		c0.58,0.35,1.04,0.17,1.48,0.04c3.84-1.13,6.08-3.76,7.05-7.56c0.66-2.56,0.5-2.88-1.98-3.92c-1.45-0.61-2.92-1.05-4.62-0.85
		C385.17,321.63,384.05,327.7,379.78,329.75z M386.61,332.04c1.52,0.39,3.06,0.53,4.4,1.23c1.26,0.66,1.87,0.2,2.46-0.84
		c0.39-0.7,0.77-1.4,0.96-2.18c0.59-2.37,0.07-4.65-0.57-7.2c-0.7,2.09-1.38,3.9-2.59,5.47
		C390.04,330.12,388.47,331.22,386.61,332.04z"/>
	<path class="st1" d="M214.49,519.05c-0.05,0.03-0.1,0.05-0.15,0.08c0.02-0.05,0.05-0.1,0.07-0.15
		C214.41,518.98,214.49,519.05,214.49,519.05z"/>
	<path class="st0" d="M258.6,300.16c-1.85,2.21-3.02,4.8-4.02,7.45c-2.57,6.77-3.71,13.8-3.57,21.02c0.09,4.45,0.6,8.86,2.74,12.9
		c0.09,0.18,0.18,0.36,0.28,0.53c0.12,0.2,0.21,0.47,0.49,0.46c0.3-0.02,0.31-0.33,0.39-0.54c0.94-2.7,2.7-4.88,4.5-7.03
		c0.15-0.18,0.34-0.31,0.54-0.48c0.44,0.49,0.39,1.09,0.57,1.6c3.04,8.35,8.67,13.84,17.49,15.73c2.03,0.44,2.05,0.31,0.79,2.03
		c-1.07,1.45-2.29,2.77-3.59,4.02c-0.45,0.43-0.87,0.54-1.49,0.46c-7.17-0.96-14.36-1.73-21.6-1.97c-2.04-0.07-4.08-0.01-6.12,0
		c-0.38,0-0.79-0.05-1.33,0.34c8.84,1.32,17.43,2.8,26.2,4.52c-1.34,1.31-2.97,1.98-4.27,3.11c1.79-0.01,3.6-0.21,5.1-0.98
		c3.49-1.79,6.83-0.63,10.23,0.05c0.12,0.02,0.23,0.07,0.35,0.1c0.74,0.15,1.92,0.03,2.08,0.58c0.21,0.71-0.84,1.21-1.39,1.74
		c-2.14,2.04-4.19,4.18-6.49,6.05c-0.38,0.31-0.7,0.75-1.38,0.84c0.45-1.57,0.88-3.07,1.31-4.57c-0.07-0.04-0.14-0.08-0.21-0.12
		c-1.26,1.15-2.48,2.33-3.78,3.43c-4.07,3.44-8.54,6.03-13.98,6.58c-3.72,0.38-7.24-0.38-10.61-1.9c-1.88-0.85-3.72-1.79-5.33-3.12
		c0.31-0.46,0.76-0.44,1.12-0.55c3.97-1.3,7.15-3.68,9.67-6.98c0.73-0.95,1.46-1.91,2.16-2.88c0.17-0.24,0.56-0.46,0.41-0.8
		c-0.16-0.35-0.57-0.19-0.87-0.2c-3.37-0.12-6.69-0.61-9.91-1.62c-9.87-3.08-15.54-9.8-17.17-19.96
		c-1.13-6.99-0.28-13.86,1.36-20.67c0.96-4.01,2.23-7.92,3.78-11.74c0.13-0.33,0.23-0.66,0.37-1.08
		c-4.66,3.08-10.68,16.58-11.55,25.75c-0.51,0.02-0.68,0.44-0.95,0.77c-0.95,1.21-1.48,2.64-2.11,4.01
		c-0.48-0.65-0.56,0.08-0.67,0.25c-2.38,3.5-4.73,7.02-7.1,10.53c-0.23,0.34-0.37,0.8-1.01,0.98c0.1-4.77,0.43-9.42,1.68-13.98
		c1.26-4.62,3.93-8.52,6.33-12.59c-8.67,4.91-13.75,12.82-18.19,21.69c-0.32-6.66-0.57-12.95,1.69-19.02
		c2.26-6.07,6.54-10.71,11.04-15.37c-0.9-0.11-1.18,0.62-1.77,0.68c-0.8-0.07-1.55,0.09-2.33,0.32c-1.66,0.49-3.32,1.03-5.08,1.06
		c1.72-1.81,3.57-3.53,4.71-5.88c-2.47,1.51-4.94,2.99-7.75,3.73c-2.8,0.74-5.63,1-8.71,0.37c9.61-4.88,16.83-11.89,21.37-21.57
		c-0.99,0.77-1.94,1.59-2.98,2.29c-4.53,3.08-9.65,3.66-14.93,3.28c-5-0.36-9.86-1.55-14.69-2.83c-0.18-0.05-0.35-0.15-0.76-0.33
		c12.93-1.77,23.2-7.83,31.75-17.65c-0.96,0.02-1.37,0.45-1.83,0.71c-8.01,4.52-16.64,7.37-25.51,9.62
		c-7.71,1.96-15.52,3.5-23.15,5.75c-9.07,2.68-17.55,6.48-24.56,13.03c-2.89,2.7-5.59,5.57-7.65,8.98
		c-0.27,0.44-0.62,0.83-0.94,1.24c0,0,0.01,0.02,0.01,0.02c1.06-2.89,2.64-5.51,4.15-8.17c6.97-12.3,17.7-19.92,30.7-24.75
		c11.29-4.2,23-6.69,34.86-8.58c1.29-0.21,2.03-0.65,2.56-1.97c4.44-11.02,12.75-17.38,24.23-19.84c3.31-0.71,6.67-1.15,10.08-1.15
		c-2,0.98-4.09,1.75-6.03,2.82c-6.42,3.53-11.34,8.41-13.83,15.44c-1.6,4.52-2,9.19-1.61,13.94c0.08,0.99,0.22,1.98,0.34,2.98
		c0.04,0.3-0.07,0.72,0.33,0.81c0.3,0.07,0.46-0.26,0.66-0.45c1.76-1.63,3.27-3.51,5.16-5.01c1.75-1.39,3.51-2.77,5.27-4.14
		c0.1-0.08,0.29-0.04,0.6-0.08c-4.14,7.65-5.24,15.91-6.09,24.24c0.09,0.04,0.19,0.08,0.28,0.12c0.49-0.93,0.98-1.86,1.46-2.79
		c2.59-5,5.52-9.74,9.96-13.36c3.27-2.66,6.99-4.63,10.59-6.78c0.33-0.2,0.66-0.42,0.95-0.72c-1.78,0.09-3.47,0.54-5.17,0.97
		c-1.71,0.43-3.38,0.98-5,1.66c-1.65,0.7-3.21,1.58-4.78,2.55c1.56-5.46,5.11-9.56,9.04-13.38c3.92-3.82,8.39-6.83,13.48-8.93
		c-11.29,1.42-21.7,4.98-30.79,12.58c0.52-3.15,1.43-5.8,2.81-8.29c2.62-4.74,6.49-8.17,11.29-10.58
		c6.79-3.42,14.09-4.48,21.65-4.42c-4.02,1.27-7.72,3.07-10.7,6.23c12.78-5.4,26.19-5.6,39.68-5.2c0.84,0.28,1.71,0.09,2.56,0.17
		c0.3,0.03,0.68-0.09,0.6,0.44c-5.11,0.67-10.25,1.07-15.26,2.42c-8.19,2.21-14.38,7.1-19.1,14.02c-0.11,0.16-0.21,0.34-0.29,0.52
		c-0.03,0.06,0.01,0.15,0.04,0.36c6.68-5.77,14.38-9.07,23.07-10.01c6.1-0.66,12.11-0.02,18.08,1.55
		c-10.12-0.35-18.35,3.24-24.45,11.43c0.41,0.3,0.67-0.01,0.9-0.16c5.7-3.61,12.07-5.18,18.65-6.11c7-0.99,14.04-1.02,21.06-0.45
		c6.41,0.52,12.78,1.43,18.96,3.32c0.2,0.06,0.39,0.33,0.86-0.21c-13.14-7.38-27.12-11.54-42.06-12.74
		c13.74-2.65,27.47-2.78,41.2,0.14c-5.03,0.23-10.04,0.48-14.83,2.35c8.18,1.41,16.56,1.26,24.59,3.63
		c-2.11,0.12-4.22,0.07-6.32,0.31c-2.1,0.24-4.15,0.66-6.4,1.62c1.61,0.54,2.99,0.57,4.33,0.79c7.6,1.29,15.05,3.06,21.91,6.73
		c3.13,1.68,5.96,3.74,8.09,6.64c0.29,0.39,0.65,0.55,1.08,0.68c3.17,0.96,6.03,2.54,8.76,4.38c5.56,3.73,7.54,9.69,5.68,16.06
		c-0.28,0.94-0.56,1.9-1.15,2.93c-0.35-1.61-0.6-3.08-0.99-4.5c-1.82-6.5-5.84-11.38-11.34-15.12c-6.9-4.69-14.62-7.08-22.85-8
		c-5.55-0.62-11.09-0.57-16.64,0.05c-0.39,0.04-0.81-0.01-1.21,0.39c4.1,0.41,8.09,1.02,12.01,2.01c6.75,1.7,13.29,3.9,18.87,8.25
		c3.21,2.5,5.62,5.57,6.03,9.83c0.04,0.46,0.19,0.94-0.01,1.4c-0.38,0.14-0.52-0.18-0.68-0.37c-4.24-4.6-9.55-7.26-15.59-8.59
		c-0.42-0.09-0.8-0.31-1.2-0.47c-0.43-0.32-0.89-0.24-1.68-0.15c0.77,0.35,1.25,0.56,1.73,0.78c11.42,6.38,17.95,15.75,18,29.34
		c3.12-3.95,5.39-8.25,6.16-13.23c0.78-5.07-0.42-9.73-3.43-14.19c0.78,0.24,1.02,0.66,1.31,0.99c5.27,6.1,6.98,13.05,5.05,20.9
		c-0.85,3.44-2.29,6.63-4.01,9.72c-0.37,0.66-0.86,0.7-1.48,0.72c-3.3,0.1-6,1.59-8.78,3.77c2.42,0.13,4.52,0.14,6.59,0.48
		c2.63,0.44,5.16,1.13,7.3,2.82c1.95,1.54,2.91,3.54,2.86,6.19c-3.1-3.23-7.06-3.33-10.97-3.52c-2.13-0.1-4.27-0.06-6.42,0.22
		c1.21,0.75,2.58,0.98,3.87,1.4c5.73,1.9,11.23,4.24,15.74,8.41c0.52,0.48,1.12,0.33,1.71,0.31c7.64-0.26,14.65,1.73,20.93,6.09
		c4.55,3.16,8.02,7.2,9.6,12.64c0.3,1.03,0.47,2.1,0.82,3.15c1.19-4.69,1.25-9.3-1.3-13.96c1.58,0.71,2.7,1.63,3.74,2.61
		c4.51,4.24,7.24,9.4,7.79,15.62c0.26,2.92-0.32,5.73-1.47,8.42c-0.16,0.39-0.54,0.73-0.36,1.22l0.02-0.02
		c-0.19-0.01-0.24,0.11-0.26,0.26l0.02-0.02c-0.82,0-0.64-0.72-0.71-1.14c-0.59-3.23-1.97-6.14-3.69-9.09
		c-0.33,0.88-0.14,1.66-0.13,2.4c0.02,3.14-0.14,6.23-1.71,9.08c-1.76,3.2-4.7,4.25-8.1,4.48c-0.52,0.04-0.8-0.31-1.14-0.57
		c-4.44-3.33-9.27-5.82-14.74-6.94c-2.93-0.6-5.88-0.74-8.79,0.12c-3.92,1.15-6.24,3.86-7.34,7.7c-0.47,1.63-0.52,1.67-1.75,0.43
		c-1.48-1.48-2.53-3.29-3.62-5.06c-3.28-5.31-7.07-10.17-12.1-13.96c-0.22-0.16-0.39-0.4-0.54-0.63
		c-6.7-10.69-20.89-14.98-33.2-9.19c-4.94,2.33-8.78,5.92-11.89,10.34c-0.43,0.61-0.81,0.87-1.56,0.71
		c-1.95-0.43-3.91-0.81-5.87-1.19c-0.59-0.12-1.06-0.23-0.46-0.95c5.24-6.19,10.76-12.06,18.23-15.66c1.34-0.65,2.79-1.03,4.13-1.71
		c-1.45-0.07-2.86,0.1-4.26,0.43c-6.48,1.5-12.09,4.74-17.38,8.64c-2.8,2.07-5.45,4.33-7.98,6.71c-0.63,0.59-1.19,0.87-2.11,0.67
		c-1.91-0.41-3.85-0.65-6.19-1.02c7.76-4.84,14.05-10.84,20.16-17.34c-0.66-0.06-1,0.23-1.36,0.4c-7.26,3.39-14.78,4.61-22.63,2.58
		c-7.7-1.99-12.61-8.06-13.09-16c-0.08-1.3-0.42-2.6-0.04-3.91c0.34,0.45,0.67,0.9,1.01,1.35c0.11,1.86,0.99,3.44,1.97,4.94
		c2.79,4.27,6.84,6.88,11.56,8.5c6.45,2.22,13.02,2.22,19.64,0.88c3.46-0.7,6.8-1.78,10.02-3.22c0.22-0.1,0.89-0.08,0.32-0.62
		c1.09,0.16,2.02-0.29,3.02-0.64c1-0.34,1.82-1.17,2.96-1.11c-0.37,0.58-0.97,0.91-1.47,1.35c-2.1,1.85-4.42,3.45-6.27,5.58
		c-0.12,0.07-0.25,0.14-0.36,0.22c0,0,0.07,0.16,0.09,0.16c0.2-0.04,0.36-0.13,0.27-0.38c0.51,0.23,0.82-0.21,1.18-0.4
		c10.07-5.38,20.74-7.75,32.14-6.32c4.62,0.58,9.11,1.7,13.4,3.51c0.96,0.4,1.89,0.88,2.83,1.33c-0.25-0.89-0.89-1.38-1.49-1.78
		c-7.72-5.25-16.68-6.28-25.71-7.42c1.77-0.94,16.17-0.89,15.83-0.01c0-0.03-0.01-0.07-0.02-0.12c-6.24-2.12-12.51-4.12-19.14-4.94
		c2.57-1.13,5.41-1.86,6.02-5.19c0.41-2.23-0.97-6.78-2.38-7.72c0.12,1.61,0.45,3.24-0.31,4.8c-0.22-0.55-0.43-1.11-0.65-1.66
		c-0.34-0.89-0.48-1.91-1.51-2.35c0.36-0.44,0.04-0.85-0.08-1.24c-0.56-1.71-1.3-3.35-2.11-4.95c-2.41-4.75-5.31-9.2-8.08-13.74
		c-0.17-0.28-0.5-0.53-0.33-1c7.07,0.5,12.58,4.47,18.14,8.31c-6.86-13.88-28.66-20.15-39.19-17.23
		c8.37,1.34,13.58,6.52,17.24,13.97c-3.12-1.35-6.01-2.68-8.97-3.85c-2.98-1.18-6.08-1.87-9.66-1.66c3.11,2.14,6.19,3.71,8.9,6.15
		c-0.33,0-0.42,0.03-0.48,0c-4.82-2.41-10-3.79-15.13-5.31c-2.53-0.75-5.05-1.54-7.31-2.96c-2.23-1.4-3.5-3.34-3.37-6.06
		c0.01-0.21,0.12-0.49-0.3-0.67c-4.17,2.55-7.41,6.12-10.28,10.3c-0.35-1.31-0.09-2.41,0.15-3.47c1.63-7.25,5.5-13.11,11.22-17.8
		c0.6-0.23,1.08-0.6,1.42-1.14c-0.55,0.31-1.24,0.38-1.63,0.91c-3.39,2.12-6.49,4.6-9.19,7.57c-3.42,3.75-5.74,8.07-6.7,13.09
		c-0.45,0-0.42,0.4-0.54,0.66C259.82,295.8,259.32,298.01,258.6,300.16z M362.1,359.77c0.31-1.1,0.26-1.97,0.08-2.81
		c-1.58-7.6-6.25-12.63-13.26-15.54c-5.26-2.18-10.75-2.16-16.27-1.1c-2.17,0.42-4.32,0.92-6.38,1.92
		c8.62-0.73,17.18-1.27,24.86,4.65c-1.06-0.15-1.8-0.29-2.55-0.36c-0.79-0.08-1.59-0.11-2.39-0.13c-0.72-0.02-1.43,0-2.15,0
		C351.56,348.8,357.47,353.23,362.1,359.77z"/>
	<path class="st3" d="M203.38,311.58c1.76-0.03,3.42-0.57,5.08-1.06c0.78-0.23,1.53-0.4,2.33-0.32c-0.61,0.42-1.22,0.85-1.84,1.27
		c-3.13,2.13-5.9,4.65-8.21,7.65c-4.51,5.86-6.14,12.62-6.24,19.87c-0.07,5.53,0.76,11,1.33,16.48c0.11,1.05-0.03,2.14,0.4,3.39
		c2.96-4.41,5.47-8.95,9.47-12.42c-0.04,10.97,3.8,20.79,7.84,30.55c0.25-0.82,0.01-1.6-0.06-2.38c-0.74-8.71-0.15-17.33,1.71-25.86
		c0.87-4,1.98-7.94,3.59-11.72c0.63-1.38,1.15-2.8,2.11-4.01c0.26-0.33,0.43-0.76,0.95-0.77c-0.73,10.19,1.51,19.48,8.44,27.28
		c2.89,3.25,6.43,5.6,10.5,7.13c0.41,0.15,0.81,0.32,1.24,0.49c-1.62,1.39-8.19,1.87-14.36,1.1c-0.08-0.04-0.15-0.07-0.23-0.11
		c0.01,0.09,0.01,0.18,0.02,0.27c2.9,4.07,6.65,7.19,10.87,9.8c1.18,0.73,1.27,0.87,0.05,1.56c-5.66,3.2-8.02,8.41-9.05,14.48
		c-0.25,1.49-0.8,2.93-0.83,4.56c0.85-0.47,0.95-1.39,1.33-2.06c3.28-5.87,8.65-8.2,14.96-9.03c5.7-0.75,11.46-0.95,17.08-2.26
		c5.19-1.21,10.02-3.2,14.46-6.16c0.26-0.18,0.54-0.33,0.82-0.48c0.05-0.03,0.14,0.03,0.33,0.07c-0.47,2.48-1.78,4.56-3.05,6.66
		c-2.2,1.93-4.72,3.46-6.95,5.34c-0.9,0.76-2.08,1.25-2.55,2.47c-4.39,1.56-8.8,3.09-13.18,4.7c-5.64,2.08-11.21,4.34-16.67,7.08
		c0.69,0.24,1.22,0.02,1.77-0.16c7.87-2.63,15.84-4.92,23.86-7.01c0.24,0.33-0.03,0.58-0.1,0.88c-0.25,1.09-1.04,2.04-0.95,3.29
		c0.16-0.08,0.28-0.12,0.36-0.19c2.71-2.5,5.79-4.38,9.3-5.54c1.04-0.34,2.01-0.88,3.01-1.33c4.41-1.29,8.88-2.33,13.36-3.35
		c0.26-0.06,0.56-0.3,0.77-0.02c0.17,0.23-0.02,0.53-0.12,0.79c-1.24,3.38-3.17,6.35-5.43,9.13c-2.42,2.98-5.03,5.81-7.14,9.02
		c-3.71,5.63-5.31,11.91-5.6,18.58c-0.06,1.4-0.05,2.79-0.06,4.19c0,0.11,0.07,0.22,0.12,0.37c0.53-0.47,0.61-1.13,0.9-1.69
		c1.76-3.39,4.39-5.96,7.5-8.11c3.66-2.53,7.65-4.43,11.73-6.39c-10.85,16.54-13.06,34.27-8.32,53.15
		c-2.54-3.14-4.65-6.57-6.51-10.16c-1.86-3.6-3.23-7.36-3.68-11.43c-1.2,2.98-1.5,6.07-1.61,9.19c-0.11,3.1,0.34,6.17,0.36,9.29
		c-6.02-8.57-9.59-18.05-10.63-28.44c-1.04-10.43,0.64-20.43,5.18-29.94c-7.2,6.79-12.21,14.75-13.55,24.84
		c-0.72-0.31-0.94-0.93-1.23-1.44c-1.81-3.25-2.75-6.8-3.47-10.41c-0.6-3.05-0.89-6.14-1.07-9.29c-5.58,8.01-11.85,15.58-14.7,25.23
		c-2.2-6.65-4.14-13.32-5.64-20.11c-1.51-6.82-2.73-13.67-2.75-20.71c-1.17,1.53-1.92,3.23-2.69,4.91
		c-4.97,10.81-8.05,22.14-8.83,34.02c-0.71,10.95,0.67,21.62,4.84,31.84c0.33,0.81,0.47,1.72,1.23,2.41
		c-2.8-15.06-0.68-29.55,4.65-43.71c3.25,11.76,7.55,23.06,13.48,33.74c-0.21-10.29,0.63-20.29,6.65-29.06
		c0.11,0.01,0.22,0.03,0.34,0.04c0.12,1.89,0.22,3.78,0.35,5.66c0.61,8.44,2.34,16.68,4.5,24.84c2.19,8.3,4.94,16.44,6.94,24.79
		c1.33,5.58,2.32,11.19,1.82,16.97c-0.33,3.88-1.4,7.53-3.35,10.91c-0.17,0.3-0.29,0.67-0.77,0.89c-0.27-1.58-0.52-3.13-0.79-4.68
		c-1.22-6.97-4.05-13.27-7.97-19.11c-4.23-6.3-8.51-12.58-12.77-18.86c-0.11-0.16-0.17-0.37-0.54-0.38
		c1.95,11.45,0.22,22.16-6.41,31.89c-0.44-2.18-0.88-4.32-1.6-6.39c-1.56-4.44-3.92-8.47-6.37-12.46
		c-3.7-6.03-7.55-11.96-10.23-18.55c-3.52-8.67-4.43-17.57-2.86-26.8c1.42-8.37,2.11-16.82,1.8-25.32
		c-0.38-10.55-3.17-20.32-9.29-29.03c-0.57-0.82-1.09-1.68-1.62-2.52c-2.18-3.41-3.85-7.01-4.11-11.21
		c-3.52,5.71-5.57,12.07-8.21,18.2c-2.63-12.69-1.53-24.99,3.84-37.04c-0.76,0.25-1.16,0.79-1.59,1.25
		c-2.77,2.93-4.89,6.32-6.78,9.85c-2.87,5.36-5.25,10.94-7.13,16.74c-0.08,0.24-0.06,0.57-0.37,0.71
		c-1.96-6.23-2.43-17.55,0.94-27.05c3.16-8.88,8.4-16.24,15.9-22.03c-2.35,0.28-4.46,1.12-6.57,2.05c-2.09,0.92-3.83,2.46-5.94,3.4
		c1.52-2.53,3.26-4.86,5.12-7.11c4.95-5.99,11.08-10.45,17.96-13.96C197.5,315.56,200.52,313.7,203.38,311.58z"/>
	<path class="st3" d="M363.97,521.4c0-4.69-1.1-8.8-3.53-12.89c-0.3,1.9-0.26,3.48-0.31,5.06c-0.13,3.85-0.47,7.66-1.96,11.27
		c-1.71,4.14-4.45,7.53-7.83,10.53c1.89-6.95,2.15-13.83-0.53-20.67c-0.07,1.03-0.13,2.05-0.21,3.08c-0.08,1.04-0.16,2.07-0.28,3.1
		c-0.52,4.2-1.53,8.25-3.69,11.93c-3.05,5.21-7.8,8.21-13.33,10.18c-0.74,0.27-1.5,0.5-2.57,0.85c5.74-6.27,4.72-13.33,3.45-20.66
		c-0.54,0.63-0.5,1.24-0.65,1.77c-2.17,7.43-6.99,12.01-14.59,13.61c-4.76,1-8.36-1.22-11.65-4.27c-5.7-5.29-7.45-11.91-6.52-19.41
		c0.47-3.79,1.65-7.39,3.21-10.87c0.1-0.23,0.4-0.49,0.15-0.75c-0.22-0.22-0.53-0.05-0.8,0.02c-2.05,0.47-3.99,1.19-5.63,2.52
		c-0.48,0.39-0.7,0.29-1.06-0.09c-4.95-5.14-8.2-11.09-8.71-18.34c-0.11-1.55-0.29-3.1-0.23-4.74c0.51,0.11,0.66,0.55,0.9,0.87
		c5.58,7.35,12.75,12.27,21.89,14.02c7.58,1.45,15.04,0.7,22.39-1.5c4.99-1.49,10.01-2.74,15.24-3.02
		c4.27-0.23,8.36,0.53,12.37,1.87c3.78,1.26,7.47,1.19,11.11-0.41c0.9-0.4,1.1-0.01,1.33,0.69c1.13,3.42,1.16,6.92,0.68,10.44
		c-0.74,5.5-2.77,10.4-6.85,14.31C365.25,520.37,364.69,520.8,363.97,521.4z"/>
	<path class="st3" d="M353.34,389.59c0.19-0.85-0.31-1.07-0.65-1.35c-3.94-3.23-8.3-5.83-12.69-8.38c-2.51-1.46-5.08-2.81-7.68-4.1
		c0.03-0.1,0.06-0.21,0.08-0.31c1.03,0.22,2.08,0.38,3.09,0.67c2.3,0.65,4.6,1.35,6.88,2.07c0.92,0.29,1.69,0.23,2.15-0.68
		c0.44-0.86,0.03-1.73-1.01-2.2c-1.31-0.6-2.63-1.16-3.96-1.71c-0.94-0.39-1.93-0.61-2.45-1.69c-0.26-0.55-1.02-0.77-1.6-0.56
		c-1.3,0.49-2.4-0.06-3.56-0.43c-0.57-0.18-1.15-0.35-1.72-0.52c-0.45-0.13-0.6-0.28-0.45-0.84c0.33-1.19-0.15-2.01-1.18-2.4
		c-1.1-0.42-2.52-0.06-2.92,0.95c-0.33,0.82-0.74,0.73-1.36,0.57c-3.98-1.04-7.95-2.08-11.94-3.09c-0.8-0.2-1.1-0.4-0.52-1.22
		c1.94-2.78,4.77-3.33,7.84-3.12c5.45,0.38,10.37,2.5,15.21,4.82c2.99,1.43,5.9,3.03,8.73,4.77c0.25,0.15,0.48,0.44,0.93,0.28
		c-0.51-1.04-1.31-1.79-2.12-2.54c-3.85-3.56-8.22-6.48-12.29-9.77c-1.06-0.85-2.13-1.69-3.01-2.74c-0.37-0.45-0.98-0.87-0.72-1.52
		c0.26-0.63,1-0.56,1.57-0.66c3.87-0.68,7.55,0.09,11.12,1.56c6.69,2.76,11.49,7.51,14.74,13.93c2.55,5.04,4.37,10.37,6.46,15.6
		c1.8,4.49,3.65,8.96,6.73,12.78c1.39,1.72,3.01,3.2,4.95,4.3c0.98,0.55,1.89,1.2,2.71,1.97c0.47,0.44,0.87,0.93,1.09,1.55
		c0.68,1.91-0.03,2.93-2.03,3.07c-2.18,0.15-4.28-0.49-6.43-0.62c-12.33-0.7-23.84,1.73-34.08,8.96c-0.25,0.17-0.49,0.58-0.81,0.38
		c-0.35-0.22-0.16-0.66-0.07-0.98c0.5-1.66,1.34-3.16,2.25-4.61c0.3-0.47,0.6-0.94,0.93-1.45c-2.23,0.26-6.28,4.44-7.97,8.14
		c-1.62,3.56-2.4,7.32-2.55,11.22c-1.84-8.56,2.54-21.38,12.52-25.54c-0.05-0.53-0.61-0.22-0.84-0.53c0.04-0.08,0.05-0.22,0.13-0.28
		c1.05-0.73,2.13-1.42,3.16-2.17c0.77-0.55,1.49-1.22,1.06-2.29c-0.41-1.01-1.33-0.96-2.25-0.91c-0.83,0.05-1.54,0.36-2.24,0.78
		c-1.58,0.94-3.17,1.86-4.74,2.81c-0.56,0.34-1.07,0.41-1.69,0.14c-1.3-0.57-2.65-1.01-4.09-1.87c1.16-0.34,2.11-0.59,3.05-0.89
		c0.77-0.25,1.51-0.59,1.76-1.46c0.35-1.17-0.33-2.19-1.54-2.35c-1.31-0.16-2.52,0.35-3.75,0.64c-1.32,0.31-2.62,0.7-3.93,1.07
		c-0.43,0.12-0.84,0.21-1.26-0.07c-3.69-2.44-7-5.29-9.66-8.91c12.74,3.79,25.48,7.54,38.54,10.06c0.04-0.11,0.07-0.21,0.11-0.32
		c-3.2-1.21-6.4-2.41-9.59-3.64c-3.21-1.23-6.38-2.53-9.49-4c-3.13-1.48-6.22-3.02-9.3-5.1c1.96-0.44,3.72-0.47,5.45-0.69
		c1.34-0.17,2.21-1.13,2.06-2.29c-0.14-1.07-1.27-1.85-2.55-1.6c-2.48,0.49-5.05,0.18-7.49,0.72c-2.01,0.45-3.24-0.33-4.32-1.86
		c-0.6-0.85-1.26-1.66-1.68-2.61c-0.24-0.54-0.56-0.7-1.12-0.58c-0.5,0.11-1.03,0.2-1.54,0.18c-2.62-0.12-3.67-2-2.63-4.7
		c0.63-1.65,0.69-1.68,2.26-0.92c0.43,0.21,0.79,0.45,1.26-0.05c0.97-1.04,2.04-0.18,3.01,0.05c0.78,0.18,1.04,1.05,0.98,1.75
		c-0.08,0.98,0.37,1.29,1.18,1.58c12.32,4.26,24.28,9.39,36.1,14.86C352.44,388.91,352.91,389.08,353.34,389.59z M336.65,388.38
		c0.95-0.02,1.86-0.83,1.87-1.67c0.01-0.9-0.91-1.66-1.98-1.64c-1.04,0.02-1.91,0.85-1.85,1.77
		C334.74,387.68,335.67,388.4,336.65,388.38z M349.64,402.72c0.82-0.08,1.54-0.41,1.59-1.37c0.05-0.87-0.55-1.33-1.36-1.3
		c-0.84,0.03-1.6,0.42-1.65,1.38C348.16,402.32,348.77,402.67,349.64,402.72z M344.75,392.12c0.88-0.07,1.51-0.43,1.47-1.38
		c-0.04-0.88-0.67-1.23-1.48-1.21c-0.83,0.02-1.53,0.33-1.52,1.31C343.24,391.8,343.92,392.09,344.75,392.12z M353.6,396.31
		c0.76-0.05,1.39-0.36,1.4-1.17c0.01-0.82-0.61-1.18-1.37-1.17c-0.71,0-1.29,0.36-1.34,1.1
		C352.24,395.89,352.83,396.24,353.6,396.31z M350.24,382.47c0.72-0.06,1.33-0.32,1.34-1.17c0.01-0.84-0.6-1.19-1.34-1.19
		c-0.7-0.01-1.27,0.36-1.31,1.11C348.89,382.03,349.44,382.39,350.24,382.47z M360.53,404.35c0.82-0.05,1.43-0.37,1.48-1.24
		c0.04-0.72-0.46-1.08-1.14-1.08c-0.83,0.01-1.5,0.32-1.5,1.29C359.36,404.09,359.89,404.31,360.53,404.35z"/>
	<path class="st2" d="M300.38,434.13c0.07,0.53,0.47,0.72,0.74,0.99c5.02,5.03,8.28,11.09,10.45,17.79c0.15,0.45,0.58,1.07,0.1,1.43
		c-0.37,0.28-0.89-0.21-1.29-0.43c-2.76-1.48-5.74-2.38-8.68-3.42c-5.25-1.86-8.79-5.38-10.02-10.95c-0.41-1.85-0.27-3.74-0.16-5.61
		c0.03-0.42,0.25-0.76,0.53-1.05c3.64-3.78,7.69-7.08,11.93-10.15c0.64-0.46,1.44-0.44,2.2-0.41c4.33,0.15,8.15,1.79,11.77,4.01
		c2.36,1.44,4.47,3.2,6.61,4.94c0.43,0.35,0.52,0.76,0.51,1.26c-0.09,5.41,0.43,10.77,1.44,16.08c0.47,2.47,1.04,4.92,1.98,7.27
		c0.6,1.49,0.85,1.56,2.03,0.4c3.38-3.33,6.14-7.13,8.47-11.25c3.85-6.78,6.96-13.92,10.18-21.01c0.11-0.24,0.13-0.57,0.66-0.6
		c0.08,3.92-0.8,7.73-1.19,11.86c1.58-1.15,2.23-2.81,3.56-4.22c-0.23,2.06-0.97,3.7-1.47,5.39c-0.55,1.88-1.12,3.75-0.93,5.75
		c0.13,1.31,0.45,2.52,1.44,3.45c1.51,1.41,2.02,3.06,1.79,5.17c-0.3,2.74-0.44,5.49-1.15,8.17c-0.15,0.57-0.16,1.47-0.88,1.56
		c-0.68,0.09-0.8-0.78-1.12-1.25c-1.65-2.48-3.45-4.8-6.14-6.26c-1.66-0.9-3.44-1.35-5.32-1.45c-0.09,0.53,0.23,0.58,0.45,0.73
		c5.36,3.72,8.29,8.81,8.25,15.36c-0.02,3.39,0.59,6.67,1.11,9.98c0.16,1.04,0.19,2.08,0.07,3.11c-0.28,2.41-1.69,3.91-3.98,4.57
		c-2.66,0.76-5.37,0.68-8.09,0.32c-0.92-0.12-0.38-0.54-0.15-0.86c1.82-2.55,3.31-5.27,4.33-8.24c1.37-4,1.92-8.15,2.42-12.31
		c0.07-0.59,0.14-1.19,0.22-1.78c0.15-1.21,0.05-1.33-1.06-0.89c-2.42,0.95-4.83,1.9-7.22,2.92c-2.94,1.26-5.84,2.57-8.75,3.89
		c-0.66,0.3-1.12,0.49-1.44-0.47c-2.05-6-5.02-11.56-8.25-16.99c-2.81-4.71-5.98-9.16-9.95-12.98c-1.44-1.38-2.97-2.67-4.81-3.51
		C301.22,434.26,300.9,433.96,300.38,434.13z"/>
	<path class="st3" d="M258.6,300.16c0.72-2.14,1.22-4.36,2.16-6.43c0.12-0.26,0.09-0.66,0.54-0.66c-0.91,5.72,0.14,11.13,2.48,16.71
		c1.28-7.36,5.02-12.97,9.85-18.25c0.32,4.16,1.29,6.34,3.61,8.48c0.52,0.48,1.09,0.75,1.8,0.85c2.9,0.41,5.82,0.54,8.73,0.64
		c9.77,0.34,18.06,4.06,25.1,10.73c0.33,0.31,0.62,0.69,1.12,0.83c-0.37-3.77-0.55-7.52-2.43-10.95c0.83,0.23,1.56,0.51,2.26,0.85
		c5.3,2.54,9.49,6.44,13.22,10.89c1.03,0.45,1.17,1.46,1.51,2.35c0.21,0.56,0.43,1.11,0.65,1.66c-0.47,1.95-1.87,2.91-3.67,3.37
		c-3.74,0.95-8.72-0.98-11.12-4.34c-2.91-4.07-6.92-6.12-11.79-6.73c-4.75-0.59-9.4,0.14-14.06,0.87
		c-4.22,0.65-8.41,1.53-12.71,1.52c-1.78,0-3.51-0.36-5.34-0.84c0.34,2.19,0.97,4.12,1.77,5.98c2.97,6.9,7.63,12.03,15.05,14.22
		c4.43,1.31,8.9,1.01,13.27-0.07c5.54-1.37,10.63-0.24,15.76,2.14c-0.62,0.42-1.2,0.82-1.78,1.21c-1.14-0.06-1.96,0.77-2.96,1.11
		c-1.01,0.34-1.93,0.79-3.02,0.64c-1.92,0.01-3.83,0.09-5.74,0.28c-4.92,0.47-9.82,1.2-14.79,1.06c-6.86-0.19-12.98-2.27-18.19-6.84
		c-1.74-1.53-3.2-3.32-4.79-4.99c-0.34-0.45-0.67-0.9-1.01-1.35c-0.1-0.48-0.2-0.96-0.31-1.48c-2.52,2.17-4.95,4.26-7.46,6.42
		c-0.3-0.59-0.29-1.14-0.31-1.67c-0.36-9.32,0.02-18.57,2.55-27.62C258.6,300.56,258.58,300.35,258.6,300.16z"/>
	<path class="st0" d="M179.9,458.79c0.6-2.56,1.02-4.79,1.11-7.06c0.23-5.69-1.16-11.08-3.01-16.4c-2.15-6.16-4.97-12.04-7.57-18.01
		c-2.2-5.06-3.91-10.23-3.55-15.87c0.33-5.11,2.03-9.83,4.16-14.42c0.6-1.29,1.26-2.54,2.01-3.77c0.42,2.94,0.27,5.86,0.34,8.77
		c0.17,7.02,1.26,13.84,4.39,20.21c0.25,0.52,0.56,1.01,0.92,1.48c-0.87-8.65,3.45-15.21,8.42-21.51c0.49-0.63,0.74-0.44,1.15,0.07
		c3.16,3.98,5.24,8.5,6.58,13.35c3.44,12.47,3.2,24.82-1.54,36.93c-2.41,6.16-6.15,11.37-11.7,15.14
		C181.15,458.02,180.68,458.3,179.9,458.79z"/>
	<path class="st3" d="M181.91,307.69c-0.42,0.26-0.85,0.1-1.28,0.04c-11.13-1.41-22.09-0.68-32.8,2.8
		c-1.65,0.54-3.28,1.17-4.73,2.24c8.16-1.28,16.24-1.25,24.2,1.13c1.68,0.5,3.33,1.08,5.1,2.06c-0.96,0.24-1.72,0.36-2.44,0.61
		c-2.72,0.92-5.42,1.92-8.14,2.83c-5.48,1.84-11.12,2.5-16.89,2.13c-0.44-0.03-0.88,0-1.33,0.08c4.34,1.63,8.86,2.39,13.48,2.61
		c4.65,0.22,9.24-0.16,13.82-1.27c-0.07,0.66-0.55,0.95-0.84,1.35c-2.45,3.29-4.23,6.95-5.96,10.65c-0.45,0.96-1.04,1.56-2.09,1.92
		c-9.26,3.22-17.09,0.74-23.96-5.82c-4.51-4.31-8.1-9.34-11.64-14.43c-0.48-0.69-0.25-1.14,0.19-1.69
		c3.12-3.94,6.96-7.05,11.28-9.55c10.17-5.89,21.14-8.72,32.89-8.32c5.15,0.18,10.14,1.2,14.82,3.5c0.6,0.3,1.14,0.66,1.81,1.24
		c-11.84-2.27-23.39-2.58-34.78,1.31c10.2-1.19,19.9,0.71,29.29,4.6L181.91,307.69z"/>
	<path class="st3" d="M276.26,506.95c-0.74,2.86-1.39,5.54-2.14,8.18c-0.7,2.46-1.6,4.86-3.06,6.99c-0.95,1.39-2.11,2.58-3.79,3.36
		c0.16-1.55,0.35-2.97,0.44-4.39c0.36-5.68-0.84-11.12-2.6-16.47c-2.19-6.67-4.85-13.19-6.65-19.99c-2.56-9.73-3.24-19.6-2.46-29.6
		c0.03-0.35,0.12-0.7,0.23-1.33c4.26,14.88,8.1,29.63,15.74,42.99c0.11-6.1-0.68-12.26,2.34-18.01c0.07,0.91,0.15,1.82,0.22,2.73
		c0.59,7.41,3.4,13.95,8.03,19.66c2.52,3.1,2.99,6.41,2.37,10.2c-0.63,3.86-1.2,7.74-1.39,11.66c-0.06,1.2-0.03,2.39,0.31,3.6
		c-1.52-0.99-4.12-5.49-5.24-9.05C277.54,514.12,277.13,510.58,276.26,506.95z"/>
	<path class="st0" d="M382.8,401.79c4.68,0.69,9.22,0.88,13.36-1.84c1.37-0.9,2.51-2.02,3.25-3.62c-4.57,2.63-9.25,3.55-14.25,1.08
		c0.96-1.27,1.48-2.77,1.71-4.4c0.64-4.48-1.45-7.25-5.98-7.95c-1.93-0.3-3.82-0.08-5.73,0.14c-0.95,0.11-1.91,0.19-2.86-0.02
		c-1.44-0.33-1.8-0.91-1.44-2.3c1.1-4.2,4.07-6.44,8.78-6.67c4.94-0.24,9.23,1.5,13.2,4.27c1.81,1.26,3.48,2.69,4.95,4.33
		c0.69,0.76,1.4,0.94,2.34,0.68c3.95-1.09,7.63-2.6,10.16-6.41c0.21,4.07-0.07,7.84-1.28,11.52c-1.61,4.89-4.37,8.88-9.03,11.31
		c-5.59,2.91-11.25,2.39-16.9,0.08C382.99,401.93,382.89,401.85,382.8,401.79z"/>
	<path class="st3" d="M366.35,422.53c-2.25,3.54-4.28,6.87-7.57,9.36c-0.18-2.33-0.34-4.49-0.52-6.66
		c-0.23-2.83-0.76-5.62-1.54-8.35c-0.17-0.61-0.21-0.86,0.53-0.85c2.3,0.03,4.54,0.29,6.66,1.26c1.31,0.6,2.42,1.43,2.95,2.82
		c0.22,0.59,0.52,0.55,1.01,0.34c1.45-0.61,2.87-0.75,4.08,0.54c0.38,0.4,0.64,0.06,0.9-0.17c0.65-0.55,1.37-0.98,2.21-1.15
		c1.47-0.31,2.31,0.22,3.78,2.36c0.73-1.13,1.51-2.19,2.87-2.54c1.28-0.34,2.05,0.08,3.24,1.82c0.4-0.85,0.75-1.66,1.15-2.45
		c0.13-0.26,0.28-0.66,0.67-0.58c0.42,0.09,0.47,0.49,0.47,0.86c0.02,1.73-0.38,3.41-0.58,5.11c-0.25,2.08-0.72,4.15-0.62,6.35
		c0.54-0.37,0.5-0.89,0.62-1.32c1.38-4.72,3.56-9.15,4.92-13.88c0.16-0.57,0.54-0.62,0.98-0.68c2.33-0.34,4.42,0.28,6.38,1.53
		c0.55,0.35,0.43,0.79,0.38,1.25c-0.63,5.52-2.41,10.65-5.33,15.37c-3.18,5.16-7.18,9.68-11.27,14.12c-0.13,0.14-0.3,0.23-0.65,0.51
		c0.72-7.62,0.31-15.08,1.66-22.46c-0.64-0.1-1.05,0.3-1.53,0.42c-0.88,0.21-1.86,0.22-2.35-0.44c-0.79-1.05-1.22-0.61-1.97-0.03
		c-1.72,1.33-3.31,1.18-4.76-0.43c-0.48-0.53-0.67-0.42-1.09,0c-1.28,1.27-2.93,1.52-4.65,1.54c-0.68,0.01-0.8-0.45-0.85-0.93
		C366.42,424.42,366.41,423.64,366.35,422.53z"/>
	<path class="st3" d="M414.14,374.54c2.11-2.03,3.21-4.62,4.06-7.34c0.71-2.29,0.99-4.67,1.36-7.16c0.22,0.42,0.46,0.83,0.66,1.26
		c4.2,9.03,5.1,18.47,3.47,28.22c-0.11,0.64-0.31,1.03-1.11,1.1c-1.71,0.16-3.4,0.47-5.1,0.73c-0.28,0.04-0.55,0.09-0.82,0.18
		c-0.79,0.27-1.36,0.8-1.23,1.67c0.13,0.94,0.85,1.34,1.75,1.26c1.43-0.13,2.87-0.28,4.28-0.53c1.08-0.2,1.14,0.16,0.81,1.03
		c-0.59,1.57-1.19,3.13-1.95,4.64c-0.28,0.55-0.6,0.83-1.25,0.9c-3.81,0.42-7.59,1.13-11.42,1.39c-0.7,0.05-1.28,0.34-1.22,1.17
		c0.07,0.92,0.78,1.05,1.5,0.96c3.29-0.42,6.57-0.89,9.85-1.33c0.15-0.02,0.31-0.02,0.64-0.04c-0.66,1.24-1.51,2.18-2.38,3.08
		c-3.86,3.98-8.47,6.36-14.1,6.46c-1.37,0.02-2.71-0.2-3.99-0.72c-0.98-0.4-1.86-0.93-2.41-1.88c-0.72-1.25-0.41-1.87,0.96-2.27
		c6.28-1.86,10.76-5.94,13.98-11.52c2.42-4.2,3.18-8.83,3.23-13.6c0.02-2.04,0.12-4.08-0.18-6.11c-0.08-0.55,0.21-0.9,0.4-1.33
		c0,0-0.02,0.02-0.02,0.02c0.16-0.01,0.25-0.1,0.26-0.26L414.14,374.54z M420.91,386.39c1.18,0,2.06-0.72,2.07-1.7
		c0.01-0.99-0.86-1.78-2-1.81c-1.23-0.03-2.15,0.74-2.13,1.77C418.88,385.65,419.75,386.39,420.91,386.39z M412.99,397.79
		c-0.74,0.07-1.38,0.34-1.39,1.18c-0.01,0.8,0.54,1.22,1.31,1.25c0.82,0.03,1.44-0.32,1.44-1.21
		C414.36,398.17,413.72,397.89,412.99,397.79z"/>
	<path class="st0" d="M264.91,393.36c0.46-1.22,1.65-1.71,2.55-2.47c2.24-1.88,4.75-3.41,6.95-5.34c0.44,0.49,0.73-0.02,1.02-0.19
		c3.09-1.8,5.42-4.45,7.71-7.12c3.2-3.73,6.1-7.71,9.11-11.6c0.56-0.72,1.08-0.87,1.93-0.66c2.25,0.56,4.51,1.05,6.78,1.51
		c0.73,0.15,0.8,0.4,0.55,1.04c-1.86,4.7-2.65,9.61-2.87,14.63c-0.03,0.75-0.22,1.11-1.03,1.29c-10.93,2.43-21.7,5.43-32.36,8.86
		C265.15,393.35,265.03,393.34,264.91,393.36z"/>
	<path class="st3" d="M328.69,436.57c-0.09-1.93,0.19-4.36,0.25-6.8c0.08-3.56,1.58-6.33,4.22-8.63c3.2-2.81,6.77-4.64,11.13-4.58
		c1.82,0.03,1.91,0.13,1.59,1.91c-1.16,6.45-3.35,12.55-6.16,18.45c-2.35,4.92-5.12,9.58-8.69,13.72c-0.23,0.26-0.41,0.74-0.77,0.68
		c-0.49-0.09-0.35-0.66-0.43-1.01C328.93,445.94,328.66,441.52,328.69,436.57z"/>
	<path class="st3" d="M155.87,403.06c-0.77-3.14-1.59-6.24-2.29-9.37c-1.32-5.86-2.19-11.78-2.04-17.82
		c0.28-11.25,4.47-20.8,12.43-28.73c0.14-0.14,0.3-0.25,0.69-0.59c-0.71,2.08-1.31,3.88-1.93,5.67c-2.71,7.85-3.84,15.89-2.86,24.19
		c1.06,9.01-0.54,17.67-3.53,26.14C156.28,402.73,156.23,402.93,155.87,403.06z"/>
	<path class="st3" d="M381.31,462.57c-0.05,0.58-0.03,0.83-0.09,1.05c-1.49,5.49-3.14,10.93-6.81,15.44
		c-4.62,5.68-10.66,7.07-17.58,5.54c-1.05-0.23-2.06-0.64-3.11-0.87c-1.35-0.3-2.11-1.14-2.53-2.41c-0.6-1.79-1.12-3.59-1.11-5.49
		c0.01-1.73,0.48-2.05,2.1-1.54c8.39,2.65,15.74,0.65,22.28-5c2.15-1.86,4.09-3.93,6.06-5.97
		C380.7,463.13,380.9,462.95,381.31,462.57z"/>
	<path class="st3" d="M337.51,467.7c0.14,1.08-0.17,2.12-0.42,3.15c-1.21,4.92-2.96,9.62-5.97,13.75c-1.26,1.73-2.72,3.29-4.8,4.02
		c-2.11,0.74-4.07,0.51-5.76-1.14c-1.82-1.78-2.56-3.87-1.77-6.32c0.81-2.55,2.37-4.69,4.62-6.1c4.2-2.63,8.58-4.97,13.06-7.1
		C336.76,467.81,337.07,467.57,337.51,467.7z"/>
	<path class="st3" d="M290.36,452.06c2.85,1.17,5.41,2.02,7.97,2.92c0.64,0.22,1.12,0.87,1.69,1.29c0.91,0.67,1.88,1.26,3,1.45
		c1.01,0.17,1.24,0.81,1.12,1.63c-0.11,0.7-0.39,1.38-0.58,2.07c-0.07,0.25-0.29,0.53-0.05,0.78c0.26,0.27,0.6,0.19,0.9,0.09
		c0.26-0.09,0.54-0.2,0.74-0.39c1.27-1.24,2.62-0.85,3.97-0.2c1.89,0.9,3.5,2.23,5.16,3.47c2.23,1.66,2.25,2.24,0.17,4.17
		c-2.34,2.17-4.42,2.49-7.33,1.04c-3.39-1.7-6.04-4.29-8.42-7.19c-1.5-1.82-2.98-3.65-4.64-5.34
		C292.52,456.29,291.36,454.43,290.36,452.06z"/>
	<path class="st0" d="M279.2,412.51c1.08-1.51,2.04-2.9,3.05-4.26c3.49-4.66,5.14-9.96,5.4-15.73c0.04-0.89,0.28-1.35,1.25-1.53
		c2.86-0.55,5.71-1.18,8.54-1.86c0.94-0.23,1.07,0.1,1.02,0.91c-0.21,3.37-1.47,6.37-3.3,9.13c-3.69,5.6-8.61,9.82-14.57,12.86
		c-0.28,0.14-0.58,0.27-0.88,0.39C279.62,412.46,279.51,412.46,279.2,412.51z"/>
	<path class="st3" d="M284.25,440.94c1.93-5.2,5.1-9.6,8.83-13.62c5.95-6.39,13.15-11.12,20.68-15.41
		c7.71-4.38,15.76-8.13,23.49-12.47c0.39-0.22,0.8-0.37,1.26-0.31c0.4,0.06,0.82,0.12,0.97,0.58c0.14,0.46,0.01,0.89-0.4,1.16
		c-0.67,0.44-1.35,0.86-2.04,1.26c-6.87,3.92-14.06,7.24-20.97,11.1c-8.26,4.62-16.16,9.74-22.9,16.46
		c-2.96,2.95-5.68,6.1-7.88,9.68C284.96,439.9,284.6,440.42,284.25,440.94z"/>
	<path class="st3" d="M383.18,309.26c1.99-1.09,3.23-2.87,4.43-4.89c1.92,3.66,3.43,7.32,4.75,11.42c-3.03-1.94-6.08-3.12-9.36-3.57
		c-3.35-0.46-6.62-0.35-9.66,1.96c0.28-1.95,0.64-3.69,0.75-5.44c0.21-3.3,2.31-5.22,4.8-6.85c1.1-0.73,2.4-1.02,3.62-0.25
		c1.3,0.82,1.5,2.17,1.46,3.58C383.94,306.59,383.5,307.87,383.18,309.26z"/>
	<path class="st3" d="M272.29,419c2.9-2.36,6.09-4.1,9.28-5.8c8.77-4.68,18.07-8.09,27.52-11.07c6.13-1.93,12.29-3.75,18.44-5.6
		c0.72-0.22,1.79-0.77,2.09,0.2c0.32,1.02-0.89,1.11-1.61,1.33c-15.77,4.71-31.34,9.97-46.38,16.72c-2.74,1.23-5.44,2.55-8.17,3.83
		C273.13,418.77,272.82,419.05,272.29,419z"/>
	<path class="st3" d="M268.28,358.97c4.19,0.63,8.38,1.22,12.56,1.91c17.59,2.9,35.07,6.3,52.08,11.77c3.3,1.06,6.57,2.23,9.8,3.52
		c0.36,0.14,0.93,0.22,0.74,0.73c-0.18,0.48-0.67,0.22-1.04,0.09c-12.66-4.34-25.61-7.63-38.67-10.51
		c-7.25-1.6-14.51-3.12-21.82-4.47c-4.56-0.84-9.08-1.84-13.62-2.76C268.5,359.15,268.4,359.06,268.28,358.97z"/>
	<path class="st3" d="M257.31,397.44c5.66-2.08,11.43-3.8,17.24-5.37c12.18-3.29,24.41-6.37,36.84-8.59
		c4.37-0.78,8.77-1.34,13.19-1.72c0.24-0.02,0.48-0.02,0.72-0.04c0.46-0.03,0.84,0.14,0.87,0.61c0.04,0.56-0.43,0.56-0.84,0.6
		c-2.58,0.29-5.17,0.54-7.74,0.88c-10.11,1.31-20.05,3.5-29.94,5.92c-8.1,1.98-16.15,4.14-24.18,6.39
		c-1.98,0.55-3.98,1.04-5.97,1.56C257.44,397.6,257.37,397.52,257.31,397.44z"/>
	<path class="st3" d="M379.78,329.75c4.27-2.05,5.39-8.12,1.93-12.3c1.7-0.2,3.18,0.24,4.62,0.85c2.48,1.04,2.63,1.36,1.98,3.92
		c-0.98,3.8-3.21,6.43-7.05,7.56C380.81,329.92,380.36,330.1,379.78,329.75z"/>
	<path class="st0" d="M386.61,332.04c1.85-0.82,3.42-1.92,4.65-3.52c1.21-1.57,1.89-3.39,2.59-5.47c0.64,2.55,1.17,4.83,0.57,7.2
		c-0.2,0.78-0.57,1.48-0.96,2.18c-0.59,1.04-1.2,1.51-2.46,0.84C389.68,332.57,388.13,332.43,386.61,332.04z"/>
	<path class="st0" d="M272.31,395.08c-1,0.45-1.97,0.99-3.01,1.33c-3.51,1.17-6.59,3.05-9.3,5.54c-0.08,0.07-0.2,0.11-0.36,0.19
		c-0.1-1.26,0.69-2.2,0.95-3.29c0.07-0.3,0.34-0.55,0.1-0.88c3.68-0.95,7.36-1.91,11.04-2.86
		C271.92,395.07,272.12,395.09,272.31,395.08z"/>
	<path class="st2" d="M287.05,248.68c0.09-0.53-0.3-0.41-0.6-0.44c-0.85-0.08-1.72,0.12-2.56-0.17c1.79-0.07,3.57-0.06,5.33,0.27
		C288.49,248.39,287.82,248.91,287.05,248.68z"/>
	<path class="st0" d="M268.28,358.97c0.12,0.09,0.22,0.18,0.02,0.29c-0.84,0.03-1.6-0.27-2.6-0.47
		C266.72,358.56,267.5,358.79,268.28,358.97z"/>
	<path class="st2" d="M340.9,284.41c-0.48-0.22-0.96-0.43-1.73-0.78c0.79-0.09,1.25-0.16,1.68,0.15
		C340.87,284,340.89,284.2,340.9,284.41z"/>
	<path class="st0" d="M255.94,398.12c-0.49,0.26-1.01,0.4-1.81,0.42c0.7-0.34,1.2-0.57,1.76-0.62
		C255.9,397.98,255.92,398.05,255.94,398.12z"/>
	<path class="st3" d="M257.5,397.68c-0.26,0.1-0.52,0.28-0.83,0.11c0.12-0.32,0.4-0.28,0.63-0.35
		C257.37,397.52,257.44,397.6,257.5,397.68z"/>
	<path class="st3" d="M255.94,398.12c-0.02-0.07-0.03-0.14-0.05-0.21c0.15-0.02,0.29-0.04,0.44-0.05
		C256.33,398.14,256.05,398,255.94,398.12z"/>
	<path class="st0" d="M127.76,312.33c-0.08,0.17-0.15,0.34-0.23,0.51c0,0,0,0,0,0c0.08-0.16,0.16-0.33,0.24-0.49
		C127.77,312.34,127.76,312.33,127.76,312.33z"/>
	<polygon class="st0" points="127.53,312.84 127.5,312.87 127.53,312.83 	"/>
	<path class="st3" d="M181.9,307.71c-0.02,0.05-0.04,0.09-0.06,0.14c0.02-0.05,0.04-0.1,0.07-0.16
		C181.91,307.69,181.9,307.71,181.9,307.71z"/>
	<path class="st0" d="M361.58,285.95c0.05,0.05,0.09,0.1,0.14,0.15c-0.21,0.07-0.13-0.08-0.12-0.17
		C361.6,285.93,361.58,285.95,361.58,285.95z"/>
	<path class="st0" d="M361.35,285.71c0.08,0.08,0.16,0.16,0.24,0.24c0,0,0.02-0.02,0.02-0.02c-0.08-0.08-0.16-0.16-0.24-0.23
		C361.36,285.7,361.35,285.71,361.35,285.71z"/>
	<polygon class="st0" points="361.36,285.7 361.32,285.69 361.35,285.71 	"/>
	<path class="st1" d="M314.58,335.19c0.58-0.39,1.16-0.79,1.78-1.21c-5.13-2.38-10.22-3.51-15.76-2.14
		c-4.37,1.08-8.85,1.38-13.27,0.07c-7.42-2.19-12.08-7.32-15.05-14.22c-0.8-1.86-1.43-3.79-1.77-5.98c1.83,0.48,3.56,0.84,5.34,0.84
		c4.3,0,8.49-0.87,12.71-1.52c4.66-0.72,9.32-1.45,14.06-0.87c4.88,0.6,8.89,2.66,11.79,6.73c2.4,3.36,7.38,5.29,11.12,4.34
		c1.79-0.46,3.2-1.42,3.67-3.37c0.76-1.56,0.43-3.19,0.31-4.8c1.41,0.94,2.79,5.49,2.38,7.72c-0.61,3.33-3.45,4.06-6.02,5.19
		c6.63,0.82,12.91,2.82,19.14,4.94c0.01,0.05,0.01,0.09,0.02,0.12c0.34-0.88-14.06-0.93-15.83,0.01c9.03,1.14,17.99,2.17,25.71,7.42
		c0.6,0.41,1.24,0.9,1.49,1.78c-0.94-0.45-1.87-0.93-2.83-1.33c-4.3-1.81-8.78-2.93-13.4-3.51c-11.41-1.44-22.07,0.94-32.14,6.32
		c-0.36,0.19-0.66,0.63-1.18,0.4l0,0c1.85-2.13,4.17-3.73,6.27-5.58C313.61,336.1,314.21,335.77,314.58,335.19z M289.64,327.43
		c-3.2-4.58-3.16-6.52,0.3-11.25c-3.69-0.09-7.23,0.41-10.74,1.1c-0.59,0.12-0.77,0.56-0.53,1.1c0.22,0.51,0.44,1.04,0.76,1.49
		c2.16,3.09,5.04,5.32,8.4,6.96C288.38,327.09,288.95,327.41,289.64,327.43z M299.55,327.48c3.68-0.8,6.83-2.08,9.81-3.83
		c0.72-0.43,0.49-0.72,0.04-1.15c-1.81-1.74-3.87-3.09-6.16-4.09c-0.82-0.35-1.63-0.79-2.68-0.85
		C302.64,321.06,302.37,324.27,299.55,327.48z"/>
	<path class="st1" d="M327.04,313.85c-3.73-4.46-7.92-8.35-13.22-10.89c-0.7-0.34-1.44-0.62-2.26-0.85
		c1.88,3.43,2.06,7.18,2.43,10.95c-0.5-0.14-0.79-0.52-1.12-0.83c-7.04-6.67-15.33-10.39-25.1-10.73c-2.91-0.1-5.83-0.23-8.73-0.64
		c-0.71-0.1-1.28-0.37-1.8-0.85c-2.32-2.14-3.29-4.32-3.61-8.48c-4.83,5.28-8.57,10.89-9.85,18.25c-2.34-5.57-3.39-10.99-2.48-16.71
		c0.96-5.02,3.28-9.34,6.7-13.09c2.7-2.96,5.79-5.45,9.18-7.56c0.07,0.08,0.14,0.15,0.21,0.23c-5.71,4.69-9.59,10.54-11.22,17.8
		c-0.24,1.06-0.5,2.16-0.15,3.47c2.87-4.18,6.11-7.75,10.28-10.3c0.42,0.18,0.31,0.45,0.3,0.67c-0.13,2.72,1.14,4.66,3.37,6.06
		c2.26,1.42,4.79,2.21,7.31,2.96c5.13,1.53,10.31,2.9,15.13,5.31c0.06,0.03,0.15,0,0.48,0c-2.71-2.44-5.79-4.01-8.9-6.15
		c3.57-0.21,6.67,0.48,9.66,1.66c2.96,1.17,5.85,2.5,8.97,3.85c-3.66-7.44-8.88-12.62-17.24-13.97
		c10.53-2.92,32.33,3.35,39.19,17.23c-5.56-3.84-11.07-7.81-18.14-8.31c-0.17,0.47,0.16,0.71,0.33,1c2.77,4.53,5.67,8.99,8.08,13.74
		c0.81,1.6,1.55,3.24,2.11,4.95C327.09,312.99,327.41,313.41,327.04,313.85z"/>
	<path class="st1" d="M218.79,337.03c-1.61,3.78-2.72,7.72-3.59,11.72c-1.86,8.53-2.44,17.15-1.71,25.86
		c0.07,0.78,0.31,1.55,0.06,2.38c-4.04-9.76-7.88-19.58-7.84-30.55c-4.01,3.47-6.51,8.01-9.47,12.42c-0.42-1.25-0.29-2.34-0.4-3.39
		c-0.57-5.48-1.4-10.95-1.33-16.48c0.09-7.24,1.72-14.01,6.24-19.87c2.31-3,5.08-5.52,8.21-7.65c0.62-0.42,1.23-0.85,1.84-1.27
		c0.59-0.06,0.87-0.8,1.77-0.68c-4.51,4.65-8.78,9.3-11.04,15.37c-2.26,6.07-2.01,12.35-1.69,19.02
		c4.44-8.87,9.53-16.78,18.19-21.69c-2.4,4.07-5.07,7.97-6.33,12.59c-1.25,4.56-1.58,9.22-1.68,13.98c0.64-0.18,0.78-0.64,1.01-0.98
		c2.37-3.51,4.72-7.03,7.1-10.53C218.23,337.11,218.31,336.37,218.79,337.03z"/>
	<path class="st1" d="M362.1,359.77c-4.63-6.54-10.54-10.97-18.06-13.37c0.72,0,1.43-0.02,2.15,0c0.8,0.02,1.6,0.05,2.39,0.13
		c0.75,0.07,1.48,0.21,2.55,0.36c-7.68-5.92-16.24-5.38-24.86-4.65c2.06-1,4.21-1.5,6.38-1.92c5.52-1.06,11.01-1.08,16.27,1.1
		c7.01,2.91,11.68,7.94,13.26,15.54C362.35,357.8,362.41,358.67,362.1,359.77z"/>
	<path class="st1" d="M265.09,326.45c1.59,1.67,3.05,3.46,4.79,4.99c5.21,4.57,11.34,6.65,18.19,6.84
		c4.97,0.14,9.87-0.59,14.79-1.06c1.91-0.18,3.82-0.27,5.74-0.28c0.57,0.55-0.1,0.52-0.32,0.62c-3.22,1.44-6.56,2.52-10.02,3.22
		c-6.62,1.34-13.19,1.33-19.64-0.88c-4.72-1.62-8.77-4.23-11.56-8.5C266.08,329.88,265.2,328.31,265.09,326.45z"/>
	<path class="st2" d="M277.4,272.64c-0.07-0.08-0.14-0.15-0.21-0.23c0.4-0.54,1.08-0.6,1.64-0.91
		C278.48,272.05,277.99,272.41,277.4,272.64z"/>
	<path class="st1" d="M306.84,342.11c0.09,0.26-0.07,0.34-0.27,0.38c-0.02,0-0.1-0.16-0.09-0.16
		C306.6,342.26,306.72,342.19,306.84,342.11L306.84,342.11z"/>
	<path class="st1" d="M414.16,374.52c-0.01,0.16-0.1,0.25-0.26,0.26C413.93,374.63,413.98,374.5,414.16,374.52z"/>
	<path class="st1" d="M227.45,368.4c-0.01-0.09-0.01-0.18-0.02-0.27c0.08,0.04,0.15,0.07,0.23,0.11
		C227.59,368.29,227.52,368.34,227.45,368.4z"/>
	<path class="st1" d="M336.65,388.38c-0.99,0.02-1.91-0.7-1.97-1.54c-0.06-0.92,0.81-1.75,1.85-1.77c1.07-0.02,1.99,0.74,1.98,1.64
		C338.51,387.55,337.61,388.36,336.65,388.38z"/>
	<path class="st1" d="M349.64,402.72c-0.87-0.05-1.48-0.4-1.43-1.29c0.06-0.97,0.81-1.35,1.65-1.38c0.81-0.03,1.41,0.43,1.36,1.3
		C351.18,402.31,350.46,402.65,349.64,402.72z"/>
	<path class="st1" d="M344.75,392.12c-0.83-0.03-1.51-0.31-1.52-1.28c-0.01-0.97,0.68-1.29,1.52-1.31c0.8-0.02,1.44,0.33,1.48,1.21
		C346.26,391.69,345.63,392.05,344.75,392.12z"/>
	<path class="st1" d="M353.6,396.31c-0.76-0.07-1.35-0.43-1.3-1.25c0.05-0.74,0.63-1.09,1.34-1.1c0.76,0,1.38,0.36,1.37,1.17
		C354.99,395.95,354.36,396.26,353.6,396.31z"/>
	<path class="st1" d="M350.24,382.47c-0.79-0.08-1.34-0.44-1.31-1.25c0.04-0.75,0.61-1.11,1.31-1.11c0.74,0.01,1.34,0.36,1.34,1.19
		C351.57,382.15,350.95,382.41,350.24,382.47z"/>
	<path class="st1" d="M360.53,404.35c-0.64-0.05-1.17-0.26-1.17-1.03c0.01-0.97,0.67-1.28,1.5-1.29c0.68,0,1.17,0.36,1.14,1.08
		C361.96,403.98,361.34,404.3,360.53,404.35z"/>
	<path class="st1" d="M420.91,386.39c-1.16,0-2.03-0.74-2.05-1.74c-0.03-1.03,0.89-1.8,2.13-1.77c1.13,0.03,2,0.81,2,1.81
		C422.97,385.67,422.09,386.39,420.91,386.39z"/>
	<path class="st1" d="M412.99,397.79c0.74,0.1,1.37,0.38,1.37,1.21c0,0.89-0.62,1.25-1.44,1.21c-0.77-0.03-1.32-0.45-1.31-1.25
		C411.61,398.13,412.25,397.87,412.99,397.79z"/>
	<path class="st3" d="M289.64,327.43c-0.69-0.02-1.26-0.33-1.81-0.61c-3.36-1.64-6.24-3.87-8.4-6.96c-0.32-0.45-0.53-0.98-0.76-1.49
		c-0.24-0.54-0.05-0.99,0.53-1.1c3.51-0.69,7.05-1.19,10.74-1.1C286.47,320.91,286.43,322.85,289.64,327.43z"/>
	<path class="st3" d="M299.55,327.48c2.82-3.22,3.09-6.42,1.01-9.92c1.05,0.07,1.86,0.5,2.68,0.85c2.3,0.99,4.36,2.35,6.16,4.09
		c0.45,0.43,0.68,0.72-0.04,1.15C306.38,325.41,303.23,326.69,299.55,327.48z"/>
</g>
</svg>
